<?xml version="1.0" encoding="UTF-8" standalone="no"?>
<!-- Created with Inkscape (http://www.inkscape.org/) -->

<svg
   width="125.80672mm"
   height="87.906487mm"
   viewBox="0 0 125.80672 87.906487"
   version="1.1"
   id="svg5"
   inkscape:version="1.1.2 (0a00cf5339, 2022-02-04)"
   sodipodi:docname="Group171.svg"
   xmlns:inkscape="http://www.inkscape.org/namespaces/inkscape"
   xmlns:sodipodi="http://sodipodi.sourceforge.net/DTD/sodipodi-0.dtd"
   xmlns:xlink="http://www.w3.org/1999/xlink"
   xmlns="http://www.w3.org/2000/svg"
   xmlns:svg="http://www.w3.org/2000/svg">
  <sodipodi:namedview
     id="namedview7"
     pagecolor="#ffffff"
     bordercolor="#666666"
     borderopacity="1.0"
     inkscape:pageshadow="2"
     inkscape:pageopacity="0.0"
     inkscape:pagecheckerboard="0"
     inkscape:document-units="mm"
     showgrid="false"
     inkscape:zoom="0.77771465"
     inkscape:cx="586.97622"
     inkscape:cy="234.019"
     inkscape:window-width="1615"
     inkscape:window-height="1201"
     inkscape:window-x="1296"
     inkscape:window-y="120"
     inkscape:window-maximized="0"
     inkscape:current-layer="Group-171" />
  <defs
     id="defs2">
    <polygon
       id="path-1"
       points="490,352 490,0 0,0 0,352 " />
  </defs>
  <g
     inkscape:label="Layer 1"
     inkscape:groupmode="layer"
     id="layer1"
     transform="translate(-16.364677,-133.97459)">
    <g
       id="Group-171"
       transform="matrix(0.26458333,0,0,0.26458333,12.46075,133.77483)"
       style="fill:none;fill-rule:evenodd;stroke:none;stroke-width:1">
      <path
         d="M 411.84709,262 H 113.15291 C 109.20127,262 106,258.80535 106,254.86625 V 71.133745 C 106,67.194651 109.20127,64 113.15291,64 H 411.84709 C 415.79873,64 419,67.194651 419,71.133745 V 254.86625 C 419,258.80535 415.79873,262 411.84709,262 Z"
         id="Stroke-1"
         stroke="#e2b3b3"
         stroke-width="0.443" />
      <path
         d="M 428.84518,247 H 130.15482 C 126.20125,247 123,243.80538 123,239.86437 V 56.135628 C 123,52.19462 126.20125,49 130.15482,49 H 428.84518 C 432.79875,49 436,52.19462 436,56.135628 V 239.86437 C 436,243.80538 432.79875,247 428.84518,247"
         id="Fill-3"
         fill="#fde6e1" />
      <path
         d="m 152,61.5 c 0,1.932707 -1.56691,3.5 -3.49913,3.5 C 146.56691,65 145,63.432707 145,61.5 145,59.567293 146.56691,58 148.50087,58 150.43309,58 152,59.567293 152,61.5"
         id="Fill-5"
         fill="#006be4"
         style="fill:#83a000;fill-opacity:1" />
      <path
         d="m 164,61.5 c 0,1.932707 -1.56556,3.5 -3.5,3.5 -1.93271,0 -3.5,-1.567293 -3.5,-3.5 0,-1.932707 1.56729,-3.5 3.5,-3.5 1.93444,0 3.5,1.567293 3.5,3.5"
         id="Fill-7"
         fill="#fc7341" />
      <path
         d="m 177,61.5 c 0,1.932707 -1.56729,3.5 -3.5,3.5 -1.93444,0 -3.5,-1.567293 -3.5,-3.5 0,-1.932707 1.56556,-3.5 3.5,-3.5 1.93271,0 3.5,1.567293 3.5,3.5 z"
         id="Stroke-9"
         stroke="#e2b3b3"
         stroke-width="0.303" />
      <path
         d="M 387.55936,221 H 293.43675 C 291.53847,221 290,219.46214 290,217.56505 V 165.43301 C 290,163.53786 291.53847,162 293.43675,162 h 94.12455 c 1.89829,0 3.4387,1.53592 3.4387,3.43301 v 52.13204 C 391,219.46214 389.45959,221 387.55936,221 Z"
         id="Stroke-11"
         stroke="#e2b3b3"
         stroke-width="0.457" />
      <path
         d="M 252.55404,220 H 152.44206 C 150.54084,220 149,218.44463 149,216.52594 V 95.474056 C 149,93.555371 150.54084,92 152.44206,92 H 252.55404 C 254.45721,92 256,93.555371 256,95.472092 V 216.52594 C 256,218.44463 254.45721,220 252.55404,220 Z"
         id="Stroke-13"
         stroke="#e2b3b3"
         stroke-width="0.457" />
      <path
         d="M 227.96264,171 H 170.03343 C 168.35799,171 167,169.65341 167,167.98815 v -53.9763 C 167,112.34659 168.35799,111 170.03343,111 h 57.92921 c 1.67545,0 3.03736,1.34659 3.03736,3.01185 v 53.9763 C 231,169.65341 229.63809,171 227.96264,171 Z"
         id="Stroke-15"
         stroke="#ffffff"
         stroke-width="0.433" />
      <path
         d="m 166,182 h 63"
         id="Stroke-17"
         stroke="#ffffff"
         stroke-width="0.433" />
      <path
         d="m 166,193 h 33"
         id="Stroke-19"
         stroke="#ffffff"
         stroke-width="0.433" />
      <path
         d="m 166,204 h 46"
         id="Stroke-21"
         stroke="#ffffff"
         stroke-width="0.433" />
      <path
         d="M 360.69773,144 H 295.30227 C 293.47754,144 292,142.51204 292,140.67877 V 75.321226 C 292,73.486016 293.47754,72 295.30227,72 h 65.39546 C 362.52053,72 364,73.486016 364,75.321226 V 140.67877 C 364,142.51204 362.52053,144 360.69773,144 Z"
         id="Stroke-23"
         stroke="#ffffff"
         stroke-width="0.433" />
      <path
         d="M 349.56328,123 H 305.43672 C 303.53675,123 302,121.6564 302,119.99913 302,118.3436 303.53675,117 305.43672,117 h 44.12656 C 351.46126,117 353,118.3436 353,119.99913 353,121.6564 351.46126,123 349.56328,123 Z"
         id="Stroke-25"
         stroke="#ffffff"
         stroke-width="0.433" />
      <path
         d="M 349.56328,100 H 305.43672 C 303.53675,100 302,98.656404 302,96.999129 302,95.341853 303.53675,94 305.43672,94 h 44.12656 C 351.46126,94 353,95.341853 353,96.999129 353,98.656404 351.46126,100 349.56328,100 Z"
         id="Stroke-27"
         stroke="#ffffff"
         stroke-width="0.433" />
      <path
         d="m 320,97.5 c 0,3.03678 -2.46175,5.5 -5.50095,5.5 C 311.46365,103 309,100.53678 309,97.5 309,94.461326 311.46365,92 314.49905,92 317.53825,92 320,94.461326 320,97.5"
         id="Fill-29"
         fill="#006be4"
         style="fill:#f2b131;fill-opacity:1" />
      <path
         d="M 56.889146,68 H 34.110854 C 32.944648,68 32,68.891942 32,69.990006 v 11.919426 c 0,1.099937 0.944648,1.99188 2.110854,1.99188 h 9.283327 L 51.197091,92 v -7.802623 l 5.734352,-0.108682 C 58.081537,84.066209 59,83.181761 59,82.094941 V 69.990006 C 59,68.891942 58.055352,68 56.889146,68 Z"
         id="Stroke-31"
         stroke="#e2b3b3"
         stroke-width="0.443" />
      <path
         d="M 27,240.99906 C 27,244.31503 24.313716,247 20.999051,247 17.686284,247 15,244.31503 15,240.99906 15,237.68497 17.686284,235 20.999051,235 24.313716,235 27,237.68497 27,240.99906 Z"
         id="Stroke-33"
         stroke="#e2b3b3"
         stroke-width="0.49" />
      <path
         d="M 490,167.99893 C 490,170.76183 487.76064,173 484.99783,173 482.23718,173 480,170.76183 480,167.99893 480,165.23817 482.23718,163 484.99783,163 487.76064,163 490,165.23817 490,167.99893 Z"
         id="Stroke-35"
         stroke="#e2b3b3"
         stroke-width="0.49" />
      <mask
         id="mask-2"
         fill="#ffffff">
        <use
           xlink:href="#path-1"
           id="use34"
           x="0"
           y="0"
           width="100%"
           height="100%" />
      </mask>
      <g
         id="Clip-38" />
      <polygon
         id="Stroke-37"
         stroke="#e2b3b3"
         stroke-width="0.49"
         mask="url(#mask-2)"
         points="269,11 279,11 279,1 269,1 " />
      <path
         d="M 337.63117,182 H 365 V 154.60078 C 365,152.61183 363.3735,151 361.36883,151 H 337.63117 C 335.6265,151 334,152.61183 334,154.60078 v 23.79844 c 0,1.98895 1.6265,3.60078 3.63117,3.60078"
         id="Fill-39"
         fill="#006be4"
         mask="url(#mask-2)"
         style="fill:#f2b131;fill-opacity:1" />
      <polygon
         id="Fill-40"
         fill="#006be4"
         mask="url(#mask-2)"
         points="356,177 366,177 366,188 "
         style="fill:#b47b0b;fill-opacity:1" />
      <path
         d="m 346.10678,171.96242 c 2.84954,0.0447 5.73678,0.0816 8.3602,-0.0874 0.83121,-0.0524 1.54516,-1.27598 0.53809,-1.66246 0.42502,-0.20198 0.85423,-0.39619 1.04057,-0.83899 0.17588,-0.41756 -0.0377,-0.98465 -0.50458,-1.09147 0.99032,0.22723 1.37766,-1.22742 0.60717,-1.69935 0.40828,-0.32239 0.74746,-0.74772 0.8333,-1.23907 0.0858,-0.49136 -0.12981,-1.04486 -0.60089,-1.28374 -0.30778,-0.15537 -0.67627,-0.1612 -1.02802,-0.16314 -1.18504,-0.01 -2.37218,-0.0175 -3.55722,-0.0252 0.32034,-1.72266 0.41665,-3.59874 -0.52552,-5.10971 -0.28474,-0.45445 -1.04686,-1.00019 -1.65194,-0.65061 -0.56949,0.32822 -0.41246,1.14391 -0.38315,1.66051 0.11934,2.14021 -1.19342,4.29596 -3.23479,5.30198 0,0 0.13609,4.56203 0.10678,6.88869"
         id="Fill-41"
         fill="#fdfdfd"
         mask="url(#mask-2)" />
      <polygon
         id="Fill-42"
         fill="#fdfdfd"
         mask="url(#mask-2)"
         points="343,172 347,172 347,166 343,166 " />
      <path
         d="M 181.26284,127 H 145.35212 C 141.29159,127 138,123.60119 138,119.40841 V 81.926021 C 138,78.652581 140.56891,76 143.73716,76 h 37.52568 C 184.43109,76 187,78.652581 187,81.926021 V 121.07398 C 187,124.34742 184.43109,127 181.26284,127"
         id="Fill-43"
         fill="#13ca92"
         mask="url(#mask-2)"
         style="fill:#750a63;fill-opacity:1" />
      <polyline
         id="Stroke-44"
         stroke="#ffffff"
         stroke-width="0.478"
         mask="url(#mask-2)"
         points="143 111 156.937292 99.9284294 162.018679 105.528827 176 95" />
      <polyline
         id="Stroke-45"
         stroke="#ffffff"
         stroke-width="0.478"
         mask="url(#mask-2)"
         points="174 94 176 94.7737705 175.715789 98" />
      <path
         d="M 463.61143,116 H 383.38857 C 380.96465,116 379,114.03208 379,111.60413 V 32.397838 C 379,29.967919 380.96465,28 383.38857,28 h 80.22286 C 466.03535,28 468,29.967919 468,32.397838 V 111.60413 C 468,114.03208 466.03535,116 463.61143,116"
         id="Fill-46"
         fill="#13ca92"
         mask="url(#mask-2)"
         style="fill:#750a63;fill-opacity:1" />
      <path
         d="m 408,78 h 19"
         id="Stroke-47"
         stroke="#ffffff"
         stroke-width="0.433"
         mask="url(#mask-2)" />
      <path
         d="m 396,88 h 57"
         id="Stroke-48"
         stroke="#ffffff"
         stroke-width="0.433"
         mask="url(#mask-2)" />
      <path
         d="m 396,99 h 17"
         id="Stroke-49"
         stroke="#ffffff"
         stroke-width="0.433"
         mask="url(#mask-2)" />
      <path
         d="m 416,99 h 12"
         id="Stroke-50"
         stroke="#ffffff"
         stroke-width="0.433"
         mask="url(#mask-2)" />
      <path
         d="m 396,78 h 7"
         id="Stroke-51"
         stroke="#ffffff"
         stroke-width="0.433"
         mask="url(#mask-2)" />
      <path
         d="m 418,47.214262 v 11.569883 c 0,0.933959 1.05557,1.518617 1.90042,1.051638 l 10.46594,-5.78681 c 0.84485,-0.466979 0.84485,-1.63256 0,-2.09954 L 419.90042,46.164492 C 419.05557,45.697512 418,46.280303 418,47.214262 Z"
         id="Stroke-52"
         stroke="#ffffff"
         stroke-width="0.433"
         mask="url(#mask-2)" />
      <path
         d="M 438,52.499015 C 438,61.612175 430.61217,69 421.49901,69 412.38585,69 405,61.612175 405,52.499015 405,43.387824 412.38585,36 421.49901,36 430.61217,36 438,43.387824 438,52.499015 Z"
         id="Stroke-53"
         stroke="#ffffff"
         stroke-width="0.393"
         mask="url(#mask-2)" />
      <path
         d="M 421.42949,286 H 387.57051 C 385.59888,286 384,284.43312 384,282.50096 384,280.56688 385.59888,279 387.57051,279 h 33.85898 C 423.40112,279 425,280.56688 425,282.50096 425,284.43312 423.40112,286 421.42949,286"
         id="Fill-54"
         fill="#000000"
         mask="url(#mask-2)" />
      <polygon
         id="Fill-55"
         fill="#171d21"
         mask="url(#mask-2)"
         points="399,329 445,329 445,325 399,325 " />
      <path
         d="m 402.9519,328.9267 c 0.3178,1.90655 -0.97261,3.70835 -2.8794,4.02611 -1.9068,0.31427 -3.70882,-0.97423 -4.02488,-2.88078 -0.31605,-1.90655 0.97436,-3.70835 2.8794,-4.02436 1.9068,-0.31602 3.70882,0.97248 4.02488,2.87903"
         id="Fill-56"
         fill="#171d21"
         mask="url(#mask-2)" />
      <polygon
         id="Fill-57"
         fill="#171d21"
         mask="url(#mask-2)"
         points="419,329 424,329 424,283 419,283 " />
      <path
         d="m 447.95238,328.9267 c 0.316,1.90655 -0.97417,3.70835 -2.87887,4.02611 -1.90645,0.31427 -3.70815,-0.97423 -4.02589,-2.88078 -0.316,-1.90655 0.97417,-3.70835 2.87887,-4.02436 1.90645,-0.31602 3.70815,0.97248 4.02589,2.87903"
         id="Fill-58"
         fill="#171d21"
         mask="url(#mask-2)" />
      <path
         d="m 444.56051,285 h -40.43004 c -2.75741,0 -4.7406,-2.66344 -3.95844,-5.32295 l 19.30581,-65.70396 C 419.99597,212.20923 421.60794,211 423.43827,211 h 40.43004 c 2.75741,0 4.74059,2.66539 3.96042,5.32099 l -19.3078,65.70396 C 448.00082,283.78881 446.39084,285 444.56051,285"
         id="Fill-59"
         fill="#171d21"
         mask="url(#mask-2)" />
      <path
         d="m 438.85551,285 h -34.77668 c -2.72293,0 -4.68133,-2.66344 -3.90895,-5.32295 l 19.06445,-65.70396 C 419.74598,212.20923 421.33583,211 423.14327,211 h 34.77865 c 2.72097,0 4.67937,2.66539 3.90895,5.32099 l -19.06641,65.70396 C 442.25281,283.78881 440.661,285 438.85551,285"
         id="Fill-60"
         fill="#f7a7ab"
         mask="url(#mask-2)" />
      <path
         d="M 445.46069,286 H 403.53931 C 401.58491,286 400,284.43312 400,282.50096 400,280.56688 401.58491,279 403.53931,279 h 41.92138 C 447.41509,279 449,280.56688 449,282.50096 449,284.43312 447.41509,286 445.46069,286"
         id="Fill-61"
         fill="#171d21"
         mask="url(#mask-2)" />
      <polygon
         id="Fill-62"
         fill="#f5a5a9"
         mask="url(#mask-2)"
         points="393,311.31487 383.4532,317 376,303.68513 385.55069,298 " />
      <path
         d="m 392.51263,309 -12.03775,7.12633 -6.37612,9.51105 c -1.39798,2.22586 -1.46769,5.06925 -0.1762,7.36262 L 398,318.74535 Z"
         id="Fill-63"
         fill="#231b22"
         mask="url(#mask-2)" />
      <path
         d="m 380,317 0.53264,-4.99557 c 0,0 3.40992,-3.07236 5.46736,1.5297 z"
         id="Fill-64"
         fill="#231b22"
         mask="url(#mask-2)" />
      <path
         d="m 373.11464,246.06426 c 0,0 -29.49017,-1.46779 -26.96076,9.62685 C 348.68527,266.78575 367.85093,312 367.85093,312 L 392.51865,305.74303 373.85928,271.57301 410,258.21174 Z"
         id="Fill-65"
         fill="#f16532"
         mask="url(#mask-2)" />
      <polygon
         id="Fill-66"
         fill="#f5a5a9"
         mask="url(#mask-2)"
         points="367,324 378,324 378,308 367,308 " />
      <path
         d="m 379,322 h -14.50202 l -10.59577,4.85568 C 351.50676,328.03952 350,330.41108 350,333 h 29 z"
         id="Fill-67"
         fill="#231b22"
         mask="url(#mask-2)" />
      <path
         d="m 363,322.78629 2.87171,-4.72318 c 0,0 4.49693,-0.9973 4.10396,4.93689 z"
         id="Fill-68"
         fill="#231b22"
         mask="url(#mask-2)" />
      <path
         d="m 401.02891,253 -34.46888,0.5285 c -2.976,0.0431 -5.74154,1.71272 -6.98269,4.40415 -0.97364,2.114 -1.69354,5.22431 -1.56176,9.79092 C 358.38144,280.43103 362.13832,312 362.13832,312 h 20.69234 l -2.78127,-33.36978 37.96022,-0.46782 c 7.7911,-0.094 15.07866,-4.41199 18.37134,-11.43906 1.37294,-2.93219 2.08104,-6.25977 1.28639,-9.76743 z"
         id="Fill-69"
         fill="#fc7341"
         mask="url(#mask-2)" />
      <path
         d="m 366,245.7145 c 0.008,3.71673 -2.42501,4.27729 -6.01344,4.2855 -3.59235,0.008 -6.9787,-0.54033 -6.98656,-4.25706 -0.006,-3.71673 2.89783,-6.73683 6.48822,-6.74294 3.5904,-0.008 6.50588,2.9998 6.51178,6.7145"
         id="Fill-70"
         fill="#e7aba0"
         mask="url(#mask-2)" />
      <path
         d="M 370.59657,248.98463 363.41656,249 c -1.87517,0.004 -3.4128,-1.56516 -3.41656,-3.4856 -0.004,-1.92235 1.52827,-3.49519 3.40343,-3.49903 L 370.58344,242 c 1.87517,-0.004 3.4128,1.56516 3.41656,3.4856 0.004,1.92235 -1.52827,3.49519 -3.40343,3.49903"
         id="Fill-71"
         fill="#e7aba0"
         mask="url(#mask-2)" />
      <path
         d="M 369.49894,251 367,238.71519 l 28.90312,-6.77262 5.60451,-31.74212 c 0.62228,-3.27751 4.48321,-6.74909 7.75511,-6.1277 3.2719,0.6214 6.27572,4.43014 5.65538,7.70765 l -3.60653,41.36689 c -0.44029,2.32876 -2.19953,4.18315 -4.49691,4.74377 z"
         id="Fill-72"
         fill="#0458af"
         mask="url(#mask-2)"
         style="fill:#02305f;fill-opacity:1" />
      <path
         d="m 433.94675,193.82954 c 7.52366,0.33548 10.8191,8.26024 11.05325,13.55772 L 437.7508,258 C 406.44702,257.72498 402,254.06005 402,254.06005 v -51.00479 c 0.38194,-4.90933 2.59681,-9.52804 8.10137,-9.9942 L 421.34846,192 Z"
         id="Fill-73"
         fill="#006be4"
         mask="url(#mask-2)"
         style="fill:#001c3c;fill-opacity:1" />
      <path
         d="M 412.58028,193.10633 420.8278,192 430,193.30401 c 0,0 -0.79118,6.74898 -12.32907,5.55421 -1.73746,-0.18035 -3.41013,-0.74045 -4.59396,-1.68898 -1.17204,-0.93639 -1.4626,-2.2196 -0.49669,-4.06291"
         id="Fill-74"
         fill="#f5a5a9"
         mask="url(#mask-2)" />
      <polygon
         id="Fill-75"
         fill="#0458af"
         mask="url(#mask-2)"
         points="410,239 426.07076,233.11572 427.9162,216 429,235.77533 " />
      <path
         d="m 439,248 c -0.11592,-0.007 -0.84091,4.89455 -0.84091,4.89455 0,0 -35.05276,2.67051 -40.15909,-0.28987 z"
         id="Fill-76"
         fill="#0458af"
         mask="url(#mask-2)"
         style="fill:#022448;fill-opacity:1" />
      <path
         d="m 395.98249,249.25291 c 0.24718,3.70003 -2.14613,4.42747 -5.72629,4.68076 -3.58016,0.25329 -6.99554,-0.0628 -7.24075,-3.76082 -0.24522,-3.698 2.45805,-6.90158 6.03821,-7.15689 3.58212,-0.25329 6.68362,2.53895 6.92883,6.23695"
         id="Fill-77"
         fill="#e7aba0"
         mask="url(#mask-2)" />
      <path
         d="m 400.82068,252.52208 -7.17219,0.47033 c -1.87379,0.12206 -3.511,-1.24223 -3.64055,-3.03375 -0.12767,-1.79153 1.29926,-3.35867 3.17304,-3.48074 l 7.17219,-0.47032 c 1.87379,-0.12207 3.511,1.24043 3.63867,3.03375 0.12955,1.79153 -1.29926,3.35867 -3.17116,3.48073"
         id="Fill-78"
         fill="#e7aba0"
         mask="url(#mask-2)" />
      <path
         d="M 400.37405,254 397,239.99604 l 32.99378,-5.43557 -1.6471,-27.69049 c -1.33364,-6.14731 4.40623,-11.5198 8.83042,-10.8061 4.23253,-0.0651 7.72237,3.17026 8.54292,9.43981 L 448,243.32009 c -0.28949,2.36389 -1.95455,4.34333 -4.25449,5.05901 z"
         id="Fill-79"
         fill="#006be4"
         mask="url(#mask-2)"
         style="fill:#002248;fill-opacity:1" />
      <path
         d="m 342.82791,212.01164 36.95144,3.48834 c 1.21605,0.11265 2.18337,1.0633 2.3255,2.27681 l 3.87716,33.33588 c 0.19149,1.63448 -1.17262,3.02982 -2.80916,2.87566 l -37.56539,-3.54566 c -1.23382,-0.11463 -2.21101,-1.08899 -2.32946,-2.32226 l -3.26518,-33.27857 c -0.1599,-1.62065 1.19829,-2.98239 2.81509,-2.8302"
         id="Fill-80"
         fill="#0c0005"
         mask="url(#mask-2)" />
      <path
         d="m 340.82961,212.01191 36.95166,3.48832 c 1.21408,0.11265 2.18338,1.06329 2.32551,2.27679 l 3.87521,33.33567 c 0.19149,1.63447 -1.17066,3.0298 -2.80918,2.87564 l -37.5656,-3.54563 c -1.23186,-0.11661 -2.20905,-1.09097 -2.32947,-2.32423 l -3.2652,-33.27638 c -0.15793,-1.62063 1.19829,-2.98434 2.81707,-2.83018"
         id="Fill-81"
         fill="#243033"
         mask="url(#mask-2)" />
      <path
         d="m 384.82866,252 25.87222,2.3006 c 0.78892,0.0706 1.36745,0.73062 1.2926,1.47459 -0.0728,0.74207 -0.77272,1.28765 -1.56366,1.21898 L 383,254.64969 Z"
         id="Fill-82"
         fill="#0c0005"
         mask="url(#mask-2)" />
      <path
         d="m 360.98437,231.82744 c -0.1811,1.9254 -1.88783,3.33657 -3.81154,3.15719 -1.92541,-0.18281 -3.33829,-1.88953 -3.1572,-3.81494 0.1811,-1.9237 1.88783,-3.33658 3.81324,-3.15377 1.92371,0.18109 3.33659,1.88782 3.1555,3.81152"
         id="Fill-83"
         fill="#ffffff"
         mask="url(#mask-2)" />
      <path
         d="m 407.08831,147.00853 c 3.83478,-0.18054 7.12709,2.52558 7.70902,6.17515 0.88768,-0.64644 1.97065,-1.05022 3.15422,-1.10652 3.18579,-0.14948 5.82122,1.21911 6.59054,4.34066 C 442.88157,154.45326 425.68424,181 425.68424,181 l -1.39267,-10.2285 -0.50894,-11.46315 c -0.65688,2.28487 -2.73406,4.00677 -5.27874,4.12907 -2.67093,0.12424 -5.0006,-1.56078 -5.77585,-3.95629 -1.26445,1.25599 -2.98852,2.0752 -4.92564,2.16644 -4.10897,0.19413 -7.59657,-2.92742 -7.79384,-6.96912 -0.19529,-4.04171 2.97275,-7.4758 7.07975,-7.66992"
         id="Fill-84"
         fill="#0c0005"
         mask="url(#mask-2)" />
      <path
         d="m 427,172 -0.37933,20.28918 c -0.0704,3.60041 -2.84302,6.53013 -6.34497,6.70282 -3.75615,0.18474 -6.91983,-2.85342 -6.98632,-6.71487 L 413,175.23695 Z"
         id="Fill-85"
         fill="#f5a5a9"
         mask="url(#mask-2)" />
      <path
         d="m 426,177 c 0,0 0,12.37107 -11.90056,10.87437 L 414,182.17685 Z"
         id="Fill-86"
         fill="#0c0005"
         mask="url(#mask-2)" />
      <path
         d="m 415.27871,186 h 0.42094 c 6.23339,0.006 11.28855,-5.05241 11.29248,-11.29697 L 427,161.93804 c 0.002,-1.61582 -1.30608,-2.92622 -2.91901,-2.92819 L 409.22826,159 c -2.88164,-0.002 -5.21842,2.33506 -5.22039,5.22186 L 404,174.68727 c -0.004,6.24456 5.04533,11.30878 11.27871,11.31273"
         id="Fill-87"
         fill="#f5a5a9"
         mask="url(#mask-2)" />
      <path
         d="m 415.06627,170.071 c 0.04,0.516 0.49,0.902 1.004,0.862 0.516,-0.04 0.902,-0.488 0.864,-1.004 -0.042,-0.516 -0.492,-0.902 -1.006,-0.862 -0.516,0.04 -0.904,0.488 -0.862,1.004"
         id="Fill-88"
         fill="#0c0005"
         mask="url(#mask-2)" />
      <path
         d="m 406.06612,170.07187 c 0.042,0.516 0.49,0.902 1.006,0.862 0.516,-0.04 0.9,-0.488 0.862,-1.004 -0.04,-0.516 -0.49,-0.902 -1.004,-0.864 -0.516,0.042 -0.904,0.49 -0.864,1.006"
         id="Fill-89"
         fill="#0c0005"
         mask="url(#mask-2)" />
      <path
         d="M 409.2844,171 409,172.38676 c 0,0 0.15229,0.87663 2,0.53366"
         id="Stroke-90"
         stroke="#c3707a"
         stroke-width="0.402"
         stroke-linecap="round"
         stroke-linejoin="round"
         mask="url(#mask-2)" />
      <path
         d="m 418.2795,166.92543 c -0.0565,0.01 -0.11695,0.014 -0.17543,0.01 l -4.27078,-0.156 c -0.47789,-0.02 -0.84892,-0.416 -0.83278,-0.892 0.0181,-0.472 0.4174,-0.838 0.8973,-0.824 l 4.27079,0.158 c 0.47789,0.02 0.84891,0.416 0.83076,0.89 -0.0141,0.414 -0.32464,0.748 -0.71986,0.814"
         id="Fill-91"
         fill="#0c0005"
         mask="url(#mask-2)" />
      <path
         d="m 408.33573,166.89307 c -0.0521,0.01 -0.10783,0.014 -0.16174,0.012 l -2.40747,-0.098 c -0.43874,-0.018 -0.78267,-0.414 -0.76593,-0.886 0.0149,-0.476 0.38668,-0.844 0.82356,-0.826 l 2.40747,0.096 c 0.44246,0.018 0.78452,0.414 0.76779,0.888 -0.013,0.416 -0.29931,0.75 -0.66368,0.814"
         id="Fill-92"
         fill="#0c0005"
         mask="url(#mask-2)" />
      <path
         d="m 408,177.59858 c 0,0 2.65535,1.712 6,0.136"
         id="Stroke-93"
         stroke="#c3707a"
         stroke-width="0.402"
         stroke-linecap="round"
         stroke-linejoin="round"
         mask="url(#mask-2)" />
      <path
         d="m 425.69608,173 c 0,0 -6.48949,-1.51168 -5.25828,-11.60238 L 404,161.10661 404.39659,157 l 18.23134,0.25262 c 2.6025,0.0384 4.61308,2.34836 4.34868,4.99785 z"
         id="Fill-94"
         fill="#0c0005"
         mask="url(#mask-2)" />
      <path
         d="m 424,172.49715 c -0.002,1.93444 1.56315,3.50095 3.4981,3.50285 1.93117,0.002 3.5,-1.56651 3.5019,-3.49716 0,-1.93443 -1.56504,-3.50094 -3.4981,-3.50284 -1.93306,-0.002 -3.5019,1.56462 -3.5019,3.49715"
         id="Fill-95"
         fill="#f5a5a9"
         mask="url(#mask-2)" />
      <path
         d="m 278.7867,105.7867 c -3.67766,3.67572 -9.02398,4.28834 -11.94316,1.36916 -2.91919,-2.91918 -2.30462,-8.265505 1.36915,-11.943168 3.67572,-3.673773 9.02204,-4.288337 11.94317,-1.369156 2.91918,2.919181 2.30656,8.265504 -1.36916,11.943164"
         id="Fill-96"
         fill="#171223"
         mask="url(#mask-2)" />
      <path
         d="m 273,106.5 c 0,3.03879 -2.46266,5.5 -5.50093,5.5 C 264.46266,112 262,109.53879 262,106.5 c 0,-3.03692 2.46266,-5.5 5.49907,-5.5 3.03827,0 5.50093,2.46308 5.50093,5.5"
         id="Fill-97"
         fill="#fc7341"
         mask="url(#mask-2)" />
      <path
         d="m 242.01182,116.4895 c 0.34615,8.41666 8.50178,15.83447 17.20365,15.49958 8.69987,-0.33488 16.11717,-8.105 15.77301,-16.52166 -0.34415,-8.41859 -7.55936,-15.904149 -17.43775,-14.23166 -8.57782,1.45375 -15.88507,6.83515 -15.53891,15.25374"
         id="Fill-98"
         fill="#171223"
         mask="url(#mask-2)" />
      <path
         d="M 264.99447,140.1477 264.30673,122 253,122.49738 l 0.68774,18.14577 c 0.13872,3.09268 2.78224,5.48863 5.90248,5.35122 3.1222,-0.13741 5.54102,-2.75399 5.40425,-5.84667"
         id="Fill-99"
         fill="#a7614e"
         mask="url(#mask-2)" />
      <path
         d="m 266,123 c 0,0 -0.62987,13.79716 -10.72278,14 L 255,130.11534 Z"
         id="Fill-100"
         fill="#171223"
         mask="url(#mask-2)" />
      <path
         d="m 256.14319,133.98832 v 0 c -6.22567,0.23885 -11.46559,-3.19633 -11.71253,-9.21614 l -0.42562,-10.35214 c -0.18269,-4.44107 4.64165,-9.31518 7.34995,-9.42004 l 10.09438,2.32443 c 2.70629,-0.10487 5.01306,1.95352 5.11946,4.57505 l 0.42361,10.31136 c 0.24694,6.01982 -5.6033,11.57552 -10.84925,11.77748"
         id="Fill-101"
         fill="#a7614e"
         mask="url(#mask-2)" />
      <path
         d="m 255.11201,121.09819 c 0.054,0.49 0.496,0.844 0.986,0.79 0.49,-0.056 0.844,-0.498 0.79,-0.988 -0.056,-0.49 -0.496,-0.844 -0.986,-0.788 -0.492,0.054 -0.844,0.496 -0.79,0.986"
         id="Fill-102"
         fill="#231b22"
         mask="url(#mask-2)" />
      <path
         d="m 246.11201,121.1 c 0.054,0.49 0.496,0.842 0.986,0.788 0.49,-0.056 0.844,-0.496 0.79,-0.988 -0.056,-0.49 -0.496,-0.842 -0.986,-0.788 -0.492,0.056 -0.844,0.498 -0.79,0.988"
         id="Fill-103"
         fill="#231b22"
         mask="url(#mask-2)" />
      <path
         d="M 250.13118,122 250,124.96157 c 0,0 0.19392,1.54998 2,0.86264"
         id="Stroke-104"
         stroke="#8c453a"
         stroke-width="0.399"
         stroke-linecap="round"
         stroke-linejoin="round"
         mask="url(#mask-2)" />
      <path
         d="m 258.30916,117.807 c -0.0549,0.01 -0.1162,0.016 -0.17536,0.016 l -4.27182,-0.012 c -0.47747,0 -0.86408,-0.368 -0.86198,-0.82 0,-0.452 0.38663,-0.814 0.8662,-0.814 l 4.27394,0.01 c 0.47747,0 0.85986,0.368 0.85986,0.822 0,0.394 -0.29577,0.722 -0.69084,0.798"
         id="Fill-105"
         fill="#231b22"
         mask="url(#mask-2)" />
      <path
         d="m 248.36319,117.804 c -0.0506,0.012 -0.1071,0.016 -0.16163,0.016 l -2.40701,-0.006 c -0.44011,-0.002 -0.79649,-0.368 -0.79455,-0.82 0,-0.452 0.35833,-0.816 0.79845,-0.814 l 2.407,0.004 c 0.44207,0.002 0.79455,0.37 0.79455,0.822 0,0.394 -0.27264,0.722 -0.63681,0.798"
         id="Fill-106"
         fill="#231b22"
         mask="url(#mask-2)" />
      <path
         d="m 249,127 6,0.002 c 0,0 -0.561,2.20644 -3.61494,1.98242 C 249.30041,128.83252 249,127 249,127"
         id="Fill-107"
         fill="#ffffff"
         mask="url(#mask-2)" />
      <path
         d="m 262,113.21653 c 0,0 0.12205,6.25943 3.62549,6.78347 L 268,113 Z"
         id="Fill-108"
         fill="#171223"
         mask="url(#mask-2)" />
      <path
         d="m 270.99722,120.35969 c 0.0762,1.93228 -1.42592,3.56128 -3.35775,3.63754 -1.93183,0.0763 -3.55873,-1.42798 -3.6367,-3.36026 -0.0762,-1.93055 1.42766,-3.55955 3.35775,-3.63407 1.93184,-0.078 3.56047,1.42625 3.6367,3.35679"
         id="Fill-109"
         fill="#a7614e"
         mask="url(#mask-2)" />
      <path
         d="m 261.91394,101.02742 c 0,0 -21.10926,-1.240796 -20.91257,12.97258 H 270 l -3.9196,-9.66071 z"
         id="Fill-110"
         fill="#171223"
         mask="url(#mask-2)" />
      <polygon
         id="Fill-111"
         fill="#a7614e"
         mask="url(#mask-2)"
         points="269.24538,323 261,323 262.90506,293 273,293 " />
      <path
         d="m 259.58837,322 h 14.48421 l 10.17803,4.85596 C 286.55079,328.04131 288,330.412 288,333 l -29,-0.34177 z"
         id="Fill-112"
         fill="#231b22"
         mask="url(#mask-2)" />
      <path
         d="m 274,322.78688 -2.87352,-4.72374 c 0,0 -4.49484,-0.99748 -4.10217,4.93686 z"
         id="Fill-113"
         fill="#231b22"
         mask="url(#mask-2)" />
      <path
         d="m 275.13136,179 c 0,0 17.30458,12.14066 10.12386,52.61737 L 275.13136,300 H 260 L 260.87681,191.82883 260,179 Z"
         id="Fill-114"
         fill="#231b22"
         mask="url(#mask-2)" />
      <polygon
         id="Fill-115"
         fill="#a7614e"
         mask="url(#mask-2)"
         points="217,323 225.5,323 234,293 223.59331,293 " />
      <path
         d="m 226.41163,322 h -14.48618 l -10.17606,4.85596 C 199.44724,328.04131 198,330.412 198,333 l 29,-0.34177 z"
         id="Fill-116"
         fill="#231b22"
         mask="url(#mask-2)" />
      <path
         d="m 210,322.78688 2.87425,-4.72374 c 0,0 4.49419,-0.99748 4.10143,4.93686 z"
         id="Fill-117"
         fill="#231b22"
         mask="url(#mask-2)" />
      <path
         d="m 246.96285,179 c 0,0 -7.5797,6.90433 -13.14986,37.25952 C 228.24089,246.61471 218,298.90212 218,298.90212 L 232.24633,300 262.93973,205.62317 265,179 Z"
         id="Fill-118"
         fill="#231b22"
         mask="url(#mask-2)" />
      <polygon
         id="Fill-119"
         fill="#111012"
         mask="url(#mask-2)"
         points="251,245 262,215.49158 254.11649,205 " />
      <path
         d="m 227,162.99856 c 0.50974,0.0179 1.57887,-0.13545 2.08098,-0.23703 l 29.92214,-6.61289 c 4.25741,-0.66129 10.48506,-7.17857 8.67518,-11.25187 -1.33258,-2.99173 -4.54378,-4.5354 -7.58697,-3.64705 l -30.59989,10.79375 z"
         id="Fill-120"
         fill="#a7614e"
         mask="url(#mask-2)" />
      <path
         d="M 229.29247,152.7556 201.82621,134 198,138.8682 l 22.63761,22.45218 c 3.94658,3.4516 11.40957,1.27237 13.06517,-3.70449 1.14648,-3.44962 -1.17214,-3.21451 -4.41031,-4.86029"
         id="Fill-121"
         fill="#a7614e"
         mask="url(#mask-2)" />
      <path
         d="m 202.52788,135.32848 c -1.28457,3.05211 -4.80144,4.48493 -7.85587,3.20053 -3.05252,-1.2863 -4.48553,-4.8027 -3.20096,-7.85482 1.28457,-3.05401 4.80335,-4.48873 7.85587,-3.20243 3.05443,1.2863 4.48744,4.8046 3.20096,7.85672"
         id="Fill-122"
         fill="#a7614e"
         mask="url(#mask-2)" />
      <path
         d="m 198,126.72155 -4.55692,-3.50133 c -0.36383,-0.32254 -0.92866,-0.28632 -1.24265,0.0793 -0.27079,0.31564 -0.26747,0.78133 0.0116,1.09524 L 196.4251,129 Z"
         id="Fill-123"
         fill="#a7614e"
         mask="url(#mask-2)" />
      <path
         d="m 248,142 c -5.87529,1.37426 -14,5.02489 -14,5.02489 L 243.08765,160 l 3.11664,-0.82978 z"
         id="Fill-124"
         fill="#f8c22d"
         mask="url(#mask-2)" />
      <path
         d="m 243,159 c 0,0 -0.9688,-4.98904 0,-11 l -5,4.05909 z"
         id="Fill-125"
         fill="#ebb023"
         mask="url(#mask-2)" />
      <path
         d="M 301.22142,182 304,176.94705 289.99909,153.81775 c -1.80461,-3.09691 -10.08733,-8.75052 -12.56744,-6.15481 -1.82031,1.90339 -1.891,7.78322 -0.29062,9.87383 l 17.17615,22.75876 z"
         id="Fill-126"
         fill="#a7614e"
         mask="url(#mask-2)" />
      <path
         d="M 295.18067,181.67359 303.03157,214 309,213.34591 305.24456,180.19504 c -0.0627,-3.77373 -3.83332,-6.26083 -7.18225,-4.74311 -2.32127,1.05163 -3.54838,3.69931 -2.88164,6.22166"
         id="Fill-127"
         fill="#a7614e"
         mask="url(#mask-2)" />
      <path
         d="m 272.8586,142 c 0,0 9.75547,1.44333 16.1414,10.07754 L 275.05725,166 c 0,0 -8.99532,-8.79261 -2.99224,-17.14173 z"
         id="Fill-128"
         fill="#f8c22d"
         mask="url(#mask-2)" />
      <path
         d="m 301.28863,213.28651 c 2.603,-2.05033 6.37514,-1.602 8.42546,1.00294 2.05032,2.603 1.60006,6.37513 -1.00294,8.42546 -2.603,2.04839 -6.37514,1.60006 -8.42546,-1.00294 -2.04839,-2.60301 -1.602,-6.37514 1.00294,-8.42546"
         id="Fill-129"
         fill="#a7614e"
         mask="url(#mask-2)" />
      <path
         d="m 259.32519,139.01124 c 0,0 -6.81404,-0.50846 -16.94986,5.31416 0,0 -2.03618,17.29773 3.37665,23.69807 L 246.52804,179 l 27.33652,-0.12464 c 0,0 1.51488,-19.58088 7.13544,-24.52705 l -1.87352,-9.74988 c 0,0 -8.32893,-5.79295 -19.80129,-5.58719"
         id="Fill-130"
         fill="#f8c22d"
         mask="url(#mask-2)" />
      <path
         d="m 249,142.28667 c 0,0 10.35645,-4.78992 24,-0.50473 l -4.63535,2.44343 c -5.912,3.11695 -14.10092,1.91362 -19.36465,-1.9387"
         id="Fill-131"
         fill="#a7614e"
         mask="url(#mask-2)" />
      <path
         d="m 276,162.45598 -0.75772,0.82761 c 0,0 -3.1694,-2.49444 -5.24228,-6.28359 l 3.69513,19 z"
         id="Fill-132"
         fill="#ebb023"
         mask="url(#mask-2)" />
      <path
         d="m 107.14708,211 c 0,0 6.12856,8.07002 2.92699,17.8351 C 106.87437,238.60018 98,228.13175 98,228.13175 Z"
         id="Fill-133"
         fill="#f5a5a9"
         mask="url(#mask-2)" />
      <path
         d="m 109.65077,139.99275 c 0,0 -0.74416,-3.07726 -7.65077,-5.99275 l 4.86957,37.80594 0.46386,-2.28991 -3.72866,47.48397 10.93925,-0.63533 c 2.30746,-57.29454 -4.89325,-76.37192 -4.89325,-76.37192"
         id="Fill-134"
         fill="#ebb023"
         mask="url(#mask-2)" />
      <path
         d="m 88.12649,129 c 0,0 -11.67257,0.48208 -20.343289,5.83608 L 66,198 h 41 v -55.82847 c 0,-3.4316 -0.91691,-6.31816 -2.1414,-6.93601 C 102.11177,133.85029 94.827121,129.65326 88.12649,129"
         id="Fill-135"
         fill="#f8c22d"
         mask="url(#mask-2)" />
      <polygon
         id="Fill-136"
         fill="#ebb023"
         mask="url(#mask-2)"
         points="66,165.30315 72,157 72,174 66,172.81299 " />
      <path
         d="m 66,188.952 c -0.0039,0.108 11.079892,0 11.079892,0 v -2.41125 h 2.403532 c 0,0 11.60591,2.4578 15.516576,-7.47955 L 85.578941,177 66.330979,181.15592 Z"
         id="Fill-137"
         fill="#ebb023"
         mask="url(#mask-2)" />
      <path
         d="m 81,144.88754 c 0,0 -10.810257,14.8795 -22.206937,32.21559 -1.277015,1.94489 -4.35381,2.95431 -6.620414,2.89434 -5.121562,-0.13392 -7.384308,-5.80468 -5.532444,-10.488 0,0 13.125087,-28.66162 21.275218,-35.50571 C 68.195131,133.7659 81,144.88754 81,144.88754"
         id="Fill-138"
         fill="#f8c22d"
         mask="url(#mask-2)" />
      <path
         d="m 92.664244,164.85748 -10.203381,13.0758 c -1.006648,1.28649 -0.277835,3.16009 1.348908,3.46744 l 8.236392,1.55837 c 0.827464,0.15958 1.675062,-0.15564 2.190465,-0.80775 l 10.298002,-13.05807 c 1.01269,-1.2865 0.28589,-3.16798 -1.34286,-3.47532 l -8.329007,-1.57808 c -0.831491,-0.15761 -1.683115,0.15958 -2.198519,0.81761"
         id="Fill-139"
         fill="#0a0a0a"
         mask="url(#mask-2)" />
      <polygon
         id="Fill-140"
         fill="#f5a5a9"
         mask="url(#mask-2)"
         points="80,177 66.685744,177.17524 64,183 78.947368,182.30857 " />
      <path
         d="m 78.982028,176.83023 8.16895,-5.63513 c 0.413786,-0.28874 0.976308,-0.25334 1.35005,0.082 0.421414,0.37816 0.467179,1.00967 0.108691,1.44185 l -1.78672,2.14414 6.159129,0.64455 c 0.79325,0.0987 1.250894,0.93143 0.89622,1.63186 l -0.93245,1.84236 c -0.827573,1.63931 -2.370216,2.82222 -4.200793,3.20597 C 85.575919,182.85098 80.837394,183.69857 78,182.02201 Z"
         id="Fill-141"
         fill="#f5a5a9"
         mask="url(#mask-2)" />
      <path
         d="m 46.740847,168 c 0,0 -4.967801,8.08316 -1.527168,12.67348 3.472657,4.6273 18.494151,7.22115 31.257917,6.04389 L 77,174.40971 62.056566,171.51814 Z"
         id="Fill-142"
         fill="#f8c22d"
         mask="url(#mask-2)" />
      <path
         d="m 82.407493,109 -1.39185,19.84865 c -0.246234,3.52275 2.441475,6.62016 6.149596,7.09078 3.977308,0.50409 7.606133,-2.19556 8.017219,-5.96051 L 97,113.36552 Z"
         id="Fill-143"
         fill="#f5a5a9"
         mask="url(#mask-2)" />
      <path
         d="m 83.308189,116 c 0,0 -3.190197,13.95166 10.957471,14 L 95,122.58232 Z"
         id="Fill-144"
         fill="#231b22"
         mask="url(#mask-2)" />
      <path
         d="m 88,93 c 0,0 -8.205427,1.346865 -7.99606,7.12188 C 80.213306,105.8969 80.919918,112 80.919918,112 l 4.492659,-9.44148 z"
         id="Fill-145"
         fill="#231b22"
         mask="url(#mask-2)" />
      <path
         d="m 103.97402,99 c 0,0 5.98009,9.00029 -2.60794,13 l -1.426144,-0.78313 c 0,0 -2.583687,-7.00808 0.816174,-10.71937 z"
         id="Fill-146"
         fill="#231b22"
         mask="url(#mask-2)" />
      <path
         d="m 92.365505,126.98505 -0.430347,-0.022 C 85.581563,126.63969 80.692344,121.21632 81.015104,114.8528 l 0.657474,-13.01647 c 0.08368,-1.64677 1.484299,-2.916281 3.127985,-2.832446 l 15.143831,0.770489 c 2.936716,0.149707 5.198036,2.654797 5.048606,5.599017 l -0.53993,10.66908 c -0.32276,6.36551 -5.735962,11.26391 -12.087565,10.94254"
         id="Fill-147"
         fill="#f5a5a9"
         mask="url(#mask-2)" />
      <path
         d="m 93.935983,112.1212 c -0.066,0.516 -0.54,0.88 -1.056,0.814 -0.516,-0.066 -0.882,-0.538 -0.816,-1.056 0.068,-0.516 0.54,-0.882 1.056,-0.814 0.518,0.066 0.882,0.538 0.816,1.056"
         id="Fill-148"
         fill="#171d21"
         mask="url(#mask-2)" />
      <path
         d="m 100.93598,113.12118 c -0.066,0.518 -0.54,0.88001 -1.055997,0.81401 -0.516,-0.066 -0.882,-0.53801 -0.816,-1.054 0.068,-0.518 0.54,-0.884 1.055997,-0.816 0.518,0.066 0.882,0.54 0.816,1.05599"
         id="Fill-149"
         fill="#171d21"
         mask="url(#mask-2)" />
      <path
         d="M 97.905273,114 98,116.96703 c 0,0 -0.214477,1.57234 -2,0.83725"
         id="Stroke-150"
         stroke="#c3707a"
         stroke-width="0.394"
         stroke-linecap="round"
         stroke-linejoin="round"
         mask="url(#mask-2)" />
      <path
         d="m 89.678066,108.814 c 0.056,0.012 0.115996,0.02 0.173994,0.02 l 4.273847,0.06 c 0.475983,0.006 0.865969,-0.374 0.873968,-0.852 0.008,-0.478 -0.369986,-0.866 -0.851969,-0.876 l -4.271847,-0.06 c -0.477982,-0.006 -0.867969,0.374 -0.875968,0.852 -0.006,0.416 0.285989,0.77 0.677975,0.856"
         id="Fill-151"
         fill="#171d21"
         mask="url(#mask-2)" />
      <path
         d="m 99.624938,110.826 c 0.05161,0.012 0.106907,0.02 0.16036,0.02 l 2.407252,0.036 c 0.44053,0.006 0.79996,-0.374 0.80734,-0.85 0.007,-0.48 -0.34469,-0.87 -0.78522,-0.878 l -2.40541,-0.036 c -0.442374,-0.006 -0.801803,0.374 -0.809176,0.85 -0.0055,0.418 0.263581,0.77 0.624854,0.858"
         id="Fill-152"
         fill="#171d21"
         mask="url(#mask-2)" />
      <path
         d="m 91,118.13351 c 0,0 3.283434,3.5 8,0.552"
         id="Stroke-153"
         stroke="#c3707a"
         stroke-width="0.394"
         stroke-linecap="round"
         stroke-linejoin="round"
         mask="url(#mask-2)" />
      <path
         d="m 82,113 c 0,0 6.351795,-3.39789 5.984678,-15.144775 L 82.168676,97 l -0.08434,1.700863 z"
         id="Fill-154"
         fill="#231b22"
         mask="url(#mask-2)" />
      <path
         d="m 83.995355,112.67593 c -0.09869,1.93074 -1.742335,3.41648 -3.673079,3.31959 -1.92895,-0.0987 -3.41469,-1.74234 -3.317794,-3.67308 0.09869,-1.92896 1.742335,-3.41649 3.673079,-3.3178 1.930744,0.0987 3.416484,1.74234 3.317794,3.67129"
         id="Fill-155"
         fill="#f5a5a9"
         mask="url(#mask-2)" />
      <path
         d="m 84.831882,103.61222 4.417733,-2.13902 c 0,0 10.140932,4.98465 14.616815,0.95174 4.83284,-4.354632 4.57616,-13.739874 -4.319467,-15.216312 -7.724515,-1.283026 -13.963084,3.592474 -15.120157,8.033277 -1.157073,4.440803 0.405076,8.370315 0.405076,8.370315"
         id="Fill-156"
         fill="#231b22"
         mask="url(#mask-2)" />
      <polygon
         id="Fill-157"
         fill="#006be4"
         mask="url(#mask-2)"
         points="66,198 66.109011,211 106.95328,211 107,198 "
         style="fill:#cccccc;fill-opacity:1" />
      <polygon
         id="Fill-158"
         fill="#f5a5a9"
         mask="url(#mask-2)"
         points="72,324 83,324 83,308 72,308 " />
      <path
         d="M 83,322 H 68.5 l -10.594763,4.85714 C 55.50665,328.03861 54,330.40927 54,333 h 29 z"
         id="Fill-159"
         fill="#231b22"
         mask="url(#mask-2)" />
      <path
         d="m 69,322.78534 2.872348,-4.72241 c 0,0 4.496002,-0.996 4.103353,4.93707 z"
         id="Fill-160"
         fill="#231b22"
         mask="url(#mask-2)" />
      <polygon
         id="Fill-161"
         fill="#006be4"
         mask="url(#mask-2)"
         points="89,204 84.55417,311 67.581536,311 66,204 "
         style="fill:#cccccc;fill-opacity:1" />
      <polygon
         id="Fill-162"
         fill="#0458af"
         mask="url(#mask-2)"
         points="65,305 84,305 83.72233,311 65,311 "
         style="fill:#cccccc;fill-opacity:1" />
      <polygon
         id="Fill-163"
         fill="#f5a5a9"
         mask="url(#mask-2)"
         points="93,324 104,324 104,308 93,308 " />
      <path
         d="m 93,322 h 14.50101 l 10.59549,4.85714 C 120.49526,328.03861 122,330.40927 122,333 H 93 Z"
         id="Fill-164"
         fill="#231b22"
         mask="url(#mask-2)" />
      <path
         d="m 107,322.78534 -2.87411,-4.72241 c 0,0 -4.49423,-0.996 -4.10158,4.93707 z"
         id="Fill-165"
         fill="#231b22"
         mask="url(#mask-2)" />
      <polygon
         id="Fill-166"
         fill="#006be4"
         mask="url(#mask-2)"
         points="106,205 105.11418,311 88.142928,311 87,206.71398 "
         style="fill:#cccccc;fill-opacity:1" />
      <polygon
         id="Fill-167"
         fill="#0458af"
         mask="url(#mask-2)"
         points="87.747624,271 87,211 93,211 "
         style="fill:#cccccc;fill-opacity:1" />
      <polygon
         id="Fill-168"
         fill="#0458af"
         mask="url(#mask-2)"
         points="107,305 88,305 88.070322,311 107,311 "
         style="fill:#cccccc;fill-opacity:1" />
    </g>
  </g>
</svg>
