<?xml version="1.0" encoding="UTF-8" standalone="no"?>
<!-- Created with Inkscape (http://www.inkscape.org/) -->

<svg
   width="94.059258mm"
   height="115.93724mm"
   viewBox="0 0 94.059257 115.93724"
   version="1.1"
   id="svg15619"
   inkscape:version="1.1.2 (0a00cf5339, 2022-02-04)"
   sodipodi:docname="undraw_predictive_analytics_re_wxt8.svg"
   xmlns:inkscape="http://www.inkscape.org/namespaces/inkscape"
   xmlns:sodipodi="http://sodipodi.sourceforge.net/DTD/sodipodi-0.dtd"
   xmlns="http://www.w3.org/2000/svg"
   xmlns:svg="http://www.w3.org/2000/svg">
  <sodipodi:namedview
     id="namedview15621"
     pagecolor="#ffffff"
     bordercolor="#666666"
     borderopacity="1.0"
     inkscape:pageshadow="2"
     inkscape:pageopacity="0.0"
     inkscape:pagecheckerboard="0"
     inkscape:document-units="mm"
     showgrid="false"
     inkscape:zoom="1.5554293"
     inkscape:cx="231.1259"
     inkscape:cy="188.69389"
     inkscape:window-width="1551"
     inkscape:window-height="730"
     inkscape:window-x="1026"
     inkscape:window-y="532"
     inkscape:window-maximized="0"
     inkscape:current-layer="g15746" />
  <defs
     id="defs15616" />
  <g
     inkscape:label="Layer 1"
     inkscape:groupmode="layer"
     id="layer1"
     transform="translate(-40.154524,-77.773649)">
    <g
       id="g15746"
       transform="matrix(0.26458333,0,0,0.26458333,40.154524,77.773649)">
      <g
         id="g15627">
        <path
           d="M 336.47953,37.094 H 50.51956 c -10.48999,0 -19.02002,8.52997 -19.02002,19.01996 v 195.96002 c 0,10.48999 8.53003,19.02002 19.02002,19.02002 h 285.95997 c 10.48999,0 19.02002,-8.53003 19.02002,-19.02002 V 56.11395 c 0,-10.48999 -8.53003,-19.01996 -19.02002,-19.01996 z"
           fill="#f2f2f2"
           id="path15623" />
        <path
           d="M 305.4553,52.18799 H 19.49534 c -10.48999,0 -19.02002,8.52997 -19.02002,19.01996 v 195.96002 c 0,10.48999 8.53003,19.02002 19.02002,19.02002 H 305.4553 c 10.48999,0 19.02002,-8.53003 19.02002,-19.02002 V 71.20795 c 0,-10.48999 -8.53003,-19.01996 -19.02002,-19.01996 z m 17.02002,157.3037 c 0,41.25363 -33.44267,74.6963 -74.6963,74.6963 H 19.49534 c -9.3999,0 -17.02002,-7.62012 -17.02002,-17.02002 V 71.20795 c 0,-9.39986 7.62009,-17.01996 17.01996,-17.01996 H 305.4553 c 9.3999,0 17.02002,7.62012 17.02002,17.02002 z"
           fill="#3f3d56"
           id="path15625" />
      </g>
      <g
         id="g15635">
        <path
           d="m 41.32151,243.72071 -1.69238,-1.06543 c 1.1001,-1.74854 2.23535,-3.44336 3.37305,-5.0376 l 1.62793,1.16211 c -1.11572,1.5625 -2.22852,3.22461 -3.30859,4.94092 z"
           fill="#cccccc"
           id="path15629" />
        <path
           d="M 52.34934,229.46778 50.9177,228.0713 c 3.05176,-3.12744 6.26367,-5.8125 9.5459,-7.97998 l 1.10254,1.66895 c -3.16357,2.08887 -6.26465,4.68213 -9.2168,7.70752 z m 49.89551,-12.62402 c -2.38818,0 -4.56396,-0.30566 -6.19287,-0.57227 l 0.32324,-1.97363 c 1.65039,0.27002 3.63818,0.5459 5.86963,0.5459 1.9707,0 3.90771,-0.21631 5.92139,-0.66211 l 0.43164,1.95312 c -2.15723,0.47705 -4.23535,0.70898 -6.35303,0.70898 z m -29.92627,-0.26465 -0.60156,-1.90723 c 2.14844,-0.67773 4.37402,-1.18555 6.61475,-1.51025 1.92432,-0.27832 3.76416,-0.41357 5.62402,-0.41357 h 0.12305 v 2 h -0.12305 c -1.76318,0 -3.50879,0.12842 -5.3374,0.39307 -2.13428,0.30908 -4.25439,0.79297 -6.2998,1.43799 z m 47.67139,-5.77979 -1.27832,-1.53809 c 2.75977,-2.29248 4.73779,-5.06445 6.83252,-7.99951 l 0.83545,-1.16748 1.62305,1.16895 -0.83057,1.16016 c -2.17188,3.04346 -4.22363,5.91846 -7.18213,8.37598 z m 16.03906,-18.33789 -1.23047,-1.57715 c 2.6958,-2.10352 5.7417,-3.80811 9.31104,-5.21094 0.60791,-0.23926 1.18896,-0.45264 1.74658,-0.64258 l 0.64551,1.89258 c -0.53027,0.18115 -1.08203,0.38379 -1.66016,0.61133 -3.38818,1.33154 -6.27051,2.94287 -8.8125,4.92676 z m 24.14502,-6.94678 c -0.67285,0 -1.31104,-0.006 -1.92432,-0.0132 l 0.0234,-2 c 0.62695,0.007 1.28125,0.009 1.97363,0.0132 2.35352,0 5.63135,-0.0669 10.12744,-0.5874 l 0.23047,1.98633 c -4.64453,0.53809 -7.97412,0.59424 -10.43066,0.60107 z m 22.59668,-2.61914 -0.39648,-1.95996 c 3.59229,-0.72656 7.77148,-1.59131 11.9082,-2.65869 l 0.5,1.93652 c -4.18408,1.07959 -8.39404,1.95068 -12.01172,2.68213 z m 23.79297,-6.47363 -0.74805,-1.85498 c 4.01025,-1.6167 7.49219,-3.43994 10.64551,-5.57471 l 1.12109,1.65625 c -3.27148,2.21484 -6.87598,4.10352 -11.01855,5.77344 z m 20.20752,-14.29102 -1.62305,-1.16895 c 0.55811,-0.77441 1.04053,-1.52979 1.50684,-2.26025 1.37695,-2.15625 2.80127,-4.38623 6.19238,-7.12354 l 0.2373,-0.18994 1.23926,1.56934 -0.22021,0.17627 c -3.1377,2.5332 -4.4126,4.53027 -5.76318,6.64453 -0.48096,0.75342 -0.979,1.53271 -1.56934,2.35254 z m 17.94189,-15 -0.72949,-1.8623 c 3.56445,-1.39746 7.59033,-2.52197 11.96582,-3.34277 l 0.36914,1.96582 c -4.25244,0.79785 -8.15723,1.8877 -11.60547,3.23926 z"
           fill="#cccccc"
           id="path15631" />
        <path
           d="m 268.54319,142.42286 -0.125,-1.99609 c 1.94336,-0.12158 3.9751,-0.20166 6.03906,-0.23877 l 0.0361,2 c -2.03467,0.0361 -4.03662,0.11523 -5.9502,0.23486 z"
           fill="#cccccc"
           id="path15633" />
      </g>
      <g
         id="g15643">
        <path
           d="M 63.62346,73.85921 H 35.5634 c -1.40997,0 -2.56,1.15002 -2.56,2.56 0,1.41998 1.15002,2.57001 2.56,2.57001 h 28.06006 c 1.40997,0 2.56,-1.15002 2.56,-2.57001 0,-1.40997 -1.15002,-2.56 -2.56,-2.56 z"
           fill="#e6e6e6"
           id="path15637" />
        <path
           d="M 110.62346,73.85921 H 82.5634 c -1.40997,0 -2.56,1.15002 -2.56,2.56 0,1.41998 1.15002,2.57001 2.56,2.57001 h 28.06006 c 1.40997,0 2.56,-1.15002 2.56,-2.57001 0,-1.40997 -1.15002,-2.56 -2.56,-2.56 z"
           fill="#e6e6e6"
           id="path15639" />
        <path
           d="M 157.62346,73.85921 H 129.5634 c -1.40997,0 -2.56,1.15002 -2.56,2.56 0,1.41998 1.15002,2.57001 2.56,2.57001 h 28.06006 c 1.40997,0 2.56,-1.15002 2.56,-2.57001 0,-1.40997 -1.15002,-2.56 -2.56,-2.56 z"
           fill="#e6e6e6"
           id="path15641" />
      </g>
      <rect
         x="32.975319"
         y="242.18799"
         width="255"
         height="2"
         fill="#e6e6e6"
         id="rect15645" />
      <path
         d="m 274.50535,96.18799 c -18.15002,0.46997 -31.69,5.81 -40.27002,15.84998 -3.16998,3.72003 -4.46002,6.65002 -5.82001,9.75 -1.34998,3.06 -2.72998,6.21002 -5.94,10.32001 v -3.40002 c 1.98999,-2.91998 3.06,-5.35999 4.10999,-7.72998 1.42004,-3.23999 2.77002,-6.29999 6.13,-10.22998 8.96002,-10.5 23,-16.07001 41.72998,-16.56 l 0.0601,2 z"
         fill="#cccccc"
         id="path15647" />
      <path
         d="m 228.41532,121.78797 c -1.34998,3.06 -2.72998,6.21002 -5.94,10.32001 -0.38,0.48999 -0.78998,1 -1.22998,1.53003 -11.58002,13.76996 -27.05005,18.28998 -39.48999,21.92999 -0.78003,0.22998 -1.54004,0.44 -2.28003,0.63995 -11.06,3 -17.12,2.89001 -21.63,2.82001 -4.52997,-0.08 -7.52002,-0.13 -12.87,2.92999 -9.81,5.59003 -13.83002,13.77002 -17.71997,21.68005 -4.01001,8.13995 -7.79004,15.82996 -17.43005,19.44 -6.69,2.5 -11.38995,1.25995 -16.35999,-0.04 -4.27002,-1.13 -11.96576,-28.94397 -18.77997,-33 -14.07001,2.95001 -22.62,48.92999 -33.29004,73.54999 L 39.55533,242.788 c 10.95001,-25.24003 19.96997,-71.61003 34.70996,-74.71 6.57001,-1.38 15.22003,31.83997 19.71002,33.01996 4.65997,1.23004 9.04999,2.38 15.15002,0.10004 8.89996,-3.32001 12.33997,-10.33002 16.32996,-18.44 3.84003,-7.80005 8.19,-16.64001 18.52002,-22.54004 5.83002,-3.32996 9.21997,-3.26996 13.90002,-3.19 4.45996,0.08 10.47998,0.17999 21.59998,-2.88995 0.56,-0.16003 1.13,-0.32001 1.71997,-0.49005 12.18005,-3.56 27.33002,-7.98999 38.51001,-21.28998 1.10004,-1.31 2.01001,-2.52002 2.77002,-3.65002 1.98999,-2.91998 3.06,-5.35999 4.10999,-7.72998 1.42004,-3.23999 3.19,-2.28998 1.83002,0.81 z"
         fill="#750a62"
         id="path15649" />
      <g
         id="g15655">
        <path
           d="m 121.77587,350.56818 c -0.7916,-2.75646 -2.14717,-5.10758 -3.76107,-6.78474 l -5.86366,-26.72989 -12.78116,3.13108 7.32422,26.77769 c -0.48165,2.2656 -0.38528,4.9703 0.40632,7.72676 1.8084,6.29712 6.55959,10.4794 10.61208,9.34144 4.0525,-1.13796 5.87168,-7.16522 4.06328,-13.46232 v 0 z"
           fill="#ffb6b6"
           id="path15651" />
        <path
           d="m 120.00766,175.22718 c 0,0 -20.18426,-0.41334 -25.31664,14.28545 -4.67151,13.37891 -10.20941,50.13547 -7.2157,52.2594 l 12.74266,90.48537 18.17083,-2.49685 -4.66349,-108.56892 6.28234,-45.96446 z"
           fill="#750a62"
           id="path15653" />
      </g>
      <polygon
         points="107.47532,365.008 114.03532,349.61798 118.47532,339.18799 213.47532,343.18799 209.8953,438.18799 162.3953,438.18799 160.47532,395.61798 152.03532,438.18799 101.12534,438.18799 "
         fill="#2f2e41"
         id="polygon15657" />
      <path
         d="m 175.47532,157.18799 -33,-2 -11,14 -24,9 11,107 -5,64 c 0,0 70,56 100,-6 l -8,-75 2,-87 -23,-10 z"
         fill="#750a62"
         id="path15659" />
      <g
         id="g15665">
        <path
           d="m 239.00562,132.84916 c 0.35806,3.46696 -0.0966,6.72734 -1.14365,9.34143 l 5.49713,32.81189 -15.68972,2.15901 -3.88701,-33.51684 c -1.55922,-2.34493 -2.67064,-5.44357 -3.02869,-8.91052 -0.81798,-7.92025 2.60476,-14.76279 7.64491,-15.28331 5.04015,-0.52052 9.78906,5.47809 10.60704,13.39833 v 2e-5 z"
           fill="#ffb6b6"
           id="path15661" />
        <path
           d="m 211.67726,184.94481 c -5.40875,-9.24477 -18.82553,-10.11629 -24.83468,-1.25004 -1.64275,2.4238 -1.1851,5.14828 -1.57731,8.42166 -1.66507,13.89642 24.96442,54.95993 43.39029,59.68796 2.41791,0.62042 3.79531,3.22857 6.23577,3.7531 h 2e-5 c 7.22956,1.55386 13.96073,-4.18446 13.57049,-11.56881 l -5.00511,-94.70802 -21.02719,7.17204 1.34587,49.17054 -12.09814,-20.67841 z"
           fill="#750a62"
           id="path15663" />
      </g>
      <g
         id="g15671">
        <circle
           cx="162.39989"
           cy="123.53243"
           r="29.06773"
           fill="#ffb6b6"
           id="circle15667" />
        <path
           d="m 189.47532,102.18799 c -0.25,0.0601 3.82632,-3.91316 4,-4 4,-2 -0.11005,17.54999 -3,17 -7.11005,-1.35004 -10.17999,-4.03003 -12.94,2.65997 -0.77002,1.85999 -1.25,3.96002 -2.75,5.29004 -2.06,1.81 -5.47998,1.65997 -7.15997,3.81995 -1.35004,1.74005 -0.96002,4.30005 0.04,6.26001 1,1.97003 2.52002,3.64001 3.42999,5.65002 1.02002,2.26001 -3.33002,9.45001 -4.98999,13.48999 v 0.01 l -0.01,0.0237 c -0.44108,1.05969 -1.48927,-1.99293 -2.59591,-2.29765 -1.32423,-0.36464 -3.27507,2.7622 -5.38421,2.19397 -0.01,0 -0.02,-0.01 -0.03,-0.01 -2.01001,-0.56 -4.25,-1.15997 -6.46997,-1.76001 h -0.01 c -6.25,-1.69995 -7.83002,0.74005 -8.13,0.67004 l -3.88,-4.06 c -1.33156,-0.9695 -1.18106,-4.09939 -2.12,-4.94 -0.76788,-0.68747 -2.68219,0.90109 -3.24639,0.2403 -2.76637,-3.24001 -3.40286,-6.48121 -5.03364,-12.88031 -1.48999,-5.84998 -4.57996,-23.35999 1.77002,-24.15002 5.98999,-0.75 1.60999,-9.08997 7.64001,-8.77997 -0.35999,-1.52002 0.31,-3.15002 1.40002,-4.27002 1.07996,-1.13 2.51996,-1.83002 3.96997,-2.42999 7.15002,-2.91998 5.96002,-5.42993 13.5,-3.72998 0.75,-1.04999 11.63995,-0.35004 13,0 0.1,0.01996 -3.37,0.85004 2,0 -0.20001,1.23004 3.19995,1.77002 3,3 0.75,-1.01001 8.81,4.78998 9,6 0.25,1.51001 -2.03003,0.73999 -0.51001,0.96997 0.90002,0.14001 2.44,1.97003 2.29004,2.88 0.64996,-0.88 1.29999,-1.75 1.95996,-2.63 0.12,0.01001 0.22998,0.03003 0.35004,0.04999 3.03998,0.58002 -0.44522,10.51796 -0.32001,7.42004 0.22998,-5.69 4.25995,-2.35999 1.22998,-1.69 z"
           fill="#2f2e41"
           id="path15669" />
      </g>
      <g
         id="g15699">
        <ellipse
           cx="12.46328"
           cy="12.52176"
           rx="12.46328"
           ry="12.20069"
           fill="#750a62"
           id="ellipse15693"
           style="fill:#f2b131;fill-opacity:1" />
        <path
           d="M 112.37614,8.34784 H 45.29119 c -2.30142,0 -4.17392,-1.87249 -4.17392,-4.17392 C 41.11727,1.87249 42.98976,0 45.29119,0 h 67.08495 c 2.30142,0 4.17392,1.87249 4.17392,4.17392 0,2.30143 -1.87249,4.17392 -4.17392,4.17392 z"
           fill="#f2f2f2"
           id="path15695"
           style="fill:#f2b131;fill-opacity:1" />
        <path
           d="M 164.72947,22.47495 H 45.29119 c -2.30142,0 -4.17392,-1.87249 -4.17392,-4.17392 0,-2.30143 1.87249,-4.17392 4.17392,-4.17392 h 119.43829 c 2.30142,0 4.17392,1.87249 4.17392,4.17392 0,2.30143 -1.87249,4.17392 -4.17392,4.17392 z"
           fill="#f2f2f2"
           id="path15697"
           style="fill:#f2b131;fill-opacity:1" />
      </g>
    </g>
  </g>
</svg>
