<?xml version="1.0" encoding="UTF-8" standalone="no"?>
<!-- Created with Inkscape (http://www.inkscape.org/) -->

<svg
   width="177.05205mm"
   height="135.36835mm"
   viewBox="0 0 177.05205 135.36835"
   version="1.1"
   id="svg16328"
   inkscape:version="1.1.2 (0a00cf5339, 2022-02-04)"
   sodipodi:docname="undraw_book_lover_re_rwjy.svg"
   xmlns:inkscape="http://www.inkscape.org/namespaces/inkscape"
   xmlns:sodipodi="http://sodipodi.sourceforge.net/DTD/sodipodi-0.dtd"
   xmlns="http://www.w3.org/2000/svg"
   xmlns:svg="http://www.w3.org/2000/svg">
  <sodipodi:namedview
     id="namedview16330"
     pagecolor="#ffffff"
     bordercolor="#666666"
     borderopacity="1.0"
     inkscape:pageshadow="2"
     inkscape:pageopacity="0.0"
     inkscape:pagecheckerboard="0"
     inkscape:document-units="mm"
     showgrid="false"
     inkscape:zoom="1.0998546"
     inkscape:cx="285.03768"
     inkscape:cy="178.65998"
     inkscape:window-width="1551"
     inkscape:window-height="940"
     inkscape:window-x="945"
     inkscape:window-y="235"
     inkscape:window-maximized="0"
     inkscape:current-layer="g19983" />
  <defs
     id="defs16325" />
  <g
     inkscape:label="Layer 1"
     inkscape:groupmode="layer"
     id="layer1"
     transform="translate(46.000252,-157.19211)">
    <g
       id="g16493"
       transform="matrix(0.26458333,0,0,0.26458333,-46.000759,157.1921)">
      <path
         d="m 889.31431,635.23013 1.14386,-25.71948 a 83.06565,83.06565 0 0 1 38.74475,-9.8078 c -18.60845,15.21374 -16.28295,44.54071 -28.899,64.99963 a 49.96442,49.96442 0 0 1 -36.63941,23.08923 l -15.5722,9.53437 a 83.72447,83.72447 0 0 1 17.647,-67.8451 80.87424,80.87424 0 0 1 14.863,-13.81018 c 3.72952,9.8342 8.712,19.55933 8.712,19.55933 z"
         transform="translate(-265.41249,-194.18577)"
         fill="#f2f2f2"
         id="path16332" />
      <path
         d="m 653.17331,703.72856 c -7.93145,-0.56438 -10,1 -22,0 h -22 l 2.86191,-52.6484 34.63431,13.87845 172.114,4.22526 -0.10092,0.29182 c -0.0779,0.22491 -7.71944,22.57717 -1.74624,31.04161 l 0.24761,0.3502 -0.48329,0.005 -157.88777,1.44779 c -1.72382,0.0158 -3.92949,1.53025 -5.63961,1.40856 z"
         transform="translate(-265.41249,-194.18577)"
         fill="#f2f2f2"
         id="path16334" />
      <path
         d="m 662.10072,704.41691 c -15.3216,-1.09024 -31.18673,4.86614 -44.42775,-1.85825 l -10.5846,0.64107 -0.0301,-0.0891 c -0.0821,-0.24412 -5.08221,-39.58569 5.02571,-54.83946 l 0.44523,-0.67165 0.34761,3.61319 -3.33235,49.008 7.38552,-2.46491 c 17.93717,8.44269 39.26965,2.86708 59.79952,2.78923 L 816.444,700.02869 c 2.92672,-0.01 5.36473,1.98989 5.44261,4.45873 l 0.008,0.24112 -151.35447,-0.0115 q -4.23385,-4.1e-4 -8.43897,-0.30009 z"
         transform="translate(-265.41249,-194.18577)"
         fill="#cccccc"
         id="path16336" />
      <polygon
         points="349.834,466.636 386.821,480.499 543.707,483.616 543.667,485.616 386.44,482.491 386.279,482.431 349.132,468.509 "
         fill="#e6e6e6"
         id="polygon16338" />
      <polygon
         points="348.995,475.055 385.983,488.918 542.868,492.035 542.828,494.035 385.601,490.91 385.441,490.85 348.293,476.928 "
         fill="#e6e6e6"
         id="polygon16340" />
      <polygon
         points="348.156,483.473 385.144,497.337 542.029,500.455 541.989,502.455 384.762,499.329 384.602,499.269 347.454,485.346 "
         fill="#e6e6e6"
         id="polygon16342" />
      <path
         d="m 663.18682,669.72745 a 105.2174,105.2174 0 0 1 -41.73336,-11.7754 l -10.89789,-5.78026 0.28472,-2.8575 a 1.72931,1.72931 0 0 1 1.83824,-1.40191 l 0.962,0.0119 146.62847,2.15786 a 85.93542,85.93542 0 0 1 28.13252,5.10591 l 31.94794,11.5989 -0.0168,0.16854 c -0.26824,2.69215 -2.98266,4.77232 -6.18013,4.73523 l -144.43382,-1.69257 q -3.27725,-0.0386 -6.5319,-0.27067 z"
         transform="translate(-265.41249,-194.18577)"
         fill="#e6e6e6"
         id="path16344" />
      <polygon
         points="346.939,454.452 347.261,453.961 348.224,453.973 379.057,468.259 553.261,472.247 554.657,472.28 554.63,473.22 554.597,473.218 378.763,469.189 378.641,469.133 "
         fill="#cccccc"
         id="polygon16346" />
      <path
         d="m 683.347,649.1861 -2.232,-0.0316 -50.39167,-0.74536 -2.3879,-0.0333 c 11.51365,12.25815 36.97231,15.32488 74.28841,10.57594 z"
         transform="translate(-265.41249,-194.18577)"
         fill="#cccccc"
         id="path16348" />
      <polygon
         points="506.817,156.267 507.846,149.485 559.613,161.814 562.687,168.965 557.663,194.36 506.408,187.234 "
         fill="#ffb6b6"
         id="polygon16350" />
      <polygon
         points="586.094,490.943 574.786,490.943 569.404,447.327 586.094,447.327 "
         fill="#ffb6b6"
         id="polygon16352" />
      <path
         d="m 817.87051,699.89055 a 4.83508,4.83508 0 0 0 4.83112,4.83111 h 21.51311 l 3.7084,-7.65491 1.44022,7.65491 h 8.10856 l -2.27947,-27.34221 -3.6857,-0.21547 -12.38393,-0.73717 -1.996,-0.12473 v 7.74559 L 819.95715,695.91 a 4.83766,4.83766 0 0 0 -2.08664,3.98055 z"
         transform="translate(-265.41249,-194.18577)"
         fill="#2f2e41"
         id="path16354" />
      <polygon
         points="481.576,440.943 470.268,440.943 463.616,376.73 484.863,375.461 "
         fill="#ffb6b6"
         id="polygon16356" />
      <path
         d="m 713.35171,649.89055 a 4.83508,4.83508 0 0 0 4.83111,4.83111 h 21.51312 l 3.7084,-7.65491 1.44028,7.65491 h 8.1085 l -2.27947,-27.34221 -3.28874,-0.19284 -12.59948,-0.7598 -2.17738,-0.12473 v 7.74559 L 715.43834,645.91 a 4.83765,4.83765 0 0 0 -2.08663,3.98055 z"
         transform="translate(-265.41249,-194.18577)"
         fill="#2f2e41"
         id="path16358" />
      <path
         d="m 856.3064,647.51647 h -0.044 l -2.17473,-70.91863 a 18.54444,18.54444 0 0 0 -0.24332,-17.52412 l -0.31136,-0.56361 0.8073,-3.74218 a 23.83637,23.83637 0 0 0 -1.36215,-14.34564 l -2.02882,-66.15392 c 7.24815,-46.97409 -27.29438,-77.6088 -27.29438,-77.6088 l 3.17482,-24.62047 -55.87036,1.26978 0.95037,23.35069 -11.1091,38.1682 c -5.84641,56.95965 -45.19416,92.76163 -39.21349,147.23118 a 1.03984,1.03984 0 0 1 -0.0682,0.46 13.90645,13.90645 0 0 0 1.12309,11.22171 4.24375,4.24375 0 0 1 0.50587,1.3923 c 1.23214,9.549 1.39259,-2.53 3.02544,6.93464 l -0.31771,0.16067 c -1.144,0.39489 -1.63465,1.97966 -1.09621,3.5398 0.53844,1.56014 1.90242,2.50479 3.04642,2.1099 l 29.86695,0.31928 c 1.144,-0.3948 1.63484,-1.97966 1.09622,-3.53981 -0.53844,-1.56014 -1.90242,-2.50469 -3.04642,-2.10989 l -1.8581,0.93981 3.10868,-10.17079 1.08969,-1.01733 a 4.73668,4.73668 0 0 0 -0.60218,-7.40162 v 0 l 3.09671,-16.52756 -0.43976,-12.49986 0.906,-14.18084 39.18876,-56.78536 15.85517,78.438 16.19528,84.9638 a 2.96812,2.96812 0 0 0 -0.929,2.75281 3.07737,3.07737 0 0 0 3.06578,2.4347 h 21.98563 a 2.99464,2.99464 0 0 0 2.88387,-3.79109 3.03127,3.03127 0 0 0 -2.96278,-2.18575 z"
         transform="translate(-265.41249,-194.18577)"
         fill="#2f2e41"
         id="path16360" />
      <path
         d="m 836.755,235.32607 a 27.66159,27.66159 0 1 1 -47.57794,-19.18618 l 0.13277,-0.13263 c 0.22131,-0.23245 0.44261,-0.46477 0.675,-0.68614 a 0.01083,0.01083 0 0 0 0.011,-0.0111 5.80526,5.80526 0 0 0 0.87414,-0.78555 c 3.73412,-5.21807 7.968,-9.59349 18.22344,-6.86 14.76477,3.93538 27.66159,12.38125 27.66159,27.66158 z"
         transform="translate(-265.41249,-194.18577)"
         fill="#2f2e41"
         id="path16362" />
      <path
         d="m 684.80393,223.48442 a 10.13242,10.13242 0 0 0 11.479,10.47018 l 71.33755,58.54655 10.89647,-19.15215 -73.54881,-51.527 a 10.18731,10.18731 0 0 0 -20.16421,1.66246 z"
         transform="translate(-265.41249,-194.18577)"
         fill="#ffb6b6"
         id="path16364" />
      <path
         d="m 797.74284,309.76719 c 0,0 -0.0219,-2.10855 -11.36244,-2.02746 -14.07666,0.10064 -52.84558,-20.10913 -49.4544,-39.14246 a 7.95989,7.95989 0 0 1 -9.48943,-2.27617 l 18.87351,-18.17158 c 5.92256,0.4 5.98315,4.36307 5.47577,6.6387 l 15.16832,6.02728 39.50613,22.69717 -6.97587,22.79876 z"
         transform="translate(-265.41249,-194.18577)"
         fill="#750962"
         id="path16366"
         style="fill:#eca10f;fill-opacity:1" />
      <circle
         cx="536.86591"
         cy="47.54039"
         r="23.195431"
         fill="#ffb7b7"
         id="circle16368" />
      <path
         d="m 770.39864,357.09772 a 9.31192,9.31192 0 0 0 0.45365,11.72623 c 0.0113,0.6804 0.11338,1.33818 1.07737,3.77644 a 4.26777,4.26777 0 0 0 0.4423,0.66906 1.65977,1.65977 0 0 0 0.102,0.14743 7.71059,7.71059 0 0 0 4.02591,2.71042 l 42.45927,11.851 5.61362,1.56494 0.98662,0.27224 0.5444,-7.66627 a 6.86443,6.86443 0 0 0 1.50825,-8.81168 l -0.7825,-1.29285 4.55895,-12.2592 0.4423,-1.21346 11.62413,-31.28872 0.0113,-2.0867 0.0226,-2.15468 0.11345,-15.03767 a 30.67606,30.67606 0 0 0 -12.13447,-24.47306 30.14821,30.14821 0 0 0 -11.62413,-5.44349 l -0.0908,-0.0113 -4.59293,-6.18065 -18.63263,1.85988 -1.5423,3.164 -1.87123,3.8105 -13.50665,8.04045 -4.61564,10.72825 -3.11867,7.258 c -4.83111,3.47029 -7.71167,7.92714 -8.53951,13.23454 -1.76914,11.27258 6.124,22.55651 7.06518,23.84928 l 0.23818,12.93969 z"
         transform="translate(-265.41249,-194.18577)"
         fill="#750962"
         id="path16370"
         style="fill:#f2b131;fill-opacity:1" />
      <path
         d="m 826.55343,247.807 c -0.21023,-0.0332 -0.42047,-0.0775 -0.6307,-0.11075 -3.61815,-0.6417 -7.23624,-1.27233 -10.84333,-1.92524 l -0.332,-8.17665 -4.37048,7.32465 c -9.96925,3.30832 -19.29673,1.43846 -28.071,-2.68863 a 79.25037,79.25037 0 0 1 -8.40917,-4.636 c -0.89124,-13.82864 4.69967,-22.68158 15.10326,-21.75313 0.38,0.0339 0.65277,-0.354 0.98477,-0.52013 a 0.01083,0.01083 0 0 0 0.011,-0.0111 c 0.56431,-0.26554 1.13969,-0.52 1.71508,-0.75232 a 25.55056,25.55056 0 0 1 26.82066,5.20033 c 7.08137,6.76061 10.26799,17.92479 8.02191,28.04895 z"
         transform="translate(-265.41249,-194.18577)"
         fill="#2f2e41"
         id="path16372" />
      <path
         d="m 825.92273,247.69626 c 0,0 -6.87116,-25.64776 -36.32522,-31.56744 -0.0332,-0.0109 -0.14384,-0.0553 -0.28769,-0.12156 -0.0885,-0.0554 -0.19915,-0.11076 -0.30977,-0.166 0.33192,-0.18815 0.65277,-0.354 0.98477,-0.52014 a 0.01083,0.01083 0 0 0 0.011,-0.0111 c 0.2877,-0.26554 0.57539,-0.53108 0.87415,-0.78554 l 0.84093,0.0332 c 0,0 29.5536,-4.68032 34.21183,33.13854 z"
         transform="translate(-265.41249,-194.18577)"
         fill="#fd6584"
         id="path16374" />
      <path
         d="m 837.25391,409.37414 a 3.91253,3.91253 0 0 1 -4.01625,0.65 9.31373,9.31373 0 0 1 -3.43193,-2.51029 32.35943,32.35943 0 0 1 -7.91817,-14.27085 l 1.27279,-2.26353 a 12.42821,12.42821 0 0 1 7.48565,-13.67547 7.6634,7.6634 0 0 1 4.722,-0.41068 4.47559,4.47559 0 0 1 3.25418,3.22322 c 0.49016,2.4215 -1.52713,4.60782 -3.56957,5.998 a 25.39873,25.39873 0 0 1 -11.95631,4.2779 41.19218,41.19218 0 0 1 13.26943,11.90816 9.7574,9.7574 0 0 1 1.7555,3.44636 3.9227,3.9227 0 0 1 -0.86732,3.62718 z"
         transform="translate(-265.41249,-194.18577)"
         fill="#2f2e41"
         id="path16376" />
      <path
         id="be339808-9edc-488a-82d9-9b8c80f783b0-292"
         data-name="f02c4e45-f306-4b42-b3ad-5ddd3016d7d2"
         d="m 544.05952,705.54479 h 389.281 a 1.247,1.247 0 0 0 0,-2.494 H 544.0595 a 1.247,1.247 0 1 0 0,2.494 v 0 z"
         transform="translate(-265.41249,-194.18577)"
         fill="#cccccc" />
      <path
         d="m 647.44431,384.95505 v 0.65149 c -1.40222,-1.64291 -2.83282,-3.27182 -4.24926,-4.90073 q -0.89218,-1.01976 -1.78467,-2.03955 -3.782,-4.2918 -7.606,-8.55517 c -2.56378,-2.83283 -5.12756,-5.66565 -7.71973,-8.48429 -0.62316,-0.67984 -1.24627,-1.35971 -1.8836,-2.03955 a 14.66188,14.66188 0 0 0 -1.65741,-1.58654 6.14963,6.14963 0 0 0 -2.02539,-1.119 5.07756,5.07756 0 0 0 -2.606,-0.0282 c -0.9776,0.22668 -1.91229,0.58078 -2.86114,0.87817 -0.9776,0.32575 -1.94068,0.63733 -2.91791,0.94889 -1.95484,0.63748 -3.89514,1.275 -5.85,1.91229 a 0.19356,0.19356 0 0 1 -0.2522,-0.10651 l -0.003,-0.007 a 0.19743,0.19743 0 0 1 0.14178,-0.269 c 0.48169,-0.15579 0.97724,-0.31155 1.47315,-0.46753 1.96869,-0.65149 3.92315,-1.28881 5.89215,-1.92611 0.97723,-0.32593 1.95447,-0.63749 2.93207,-0.94907 a 8.76215,8.76215 0 0 1 2.83282,-0.56659 6.40867,6.40867 0 0 1 4.16419,1.95465 c 0.609,0.56659 1.16156,1.16138 1.7138,1.77051 q 0.97723,1.06229 1.95484,2.12463 3.93025,4.29182 7.80407,8.61173 3.88825,4.33428 7.70557,8.68262 0.276,0.31878 0.55225,0.63748 c 1.43064,1.61446 2.83286,3.24352 4.2493,4.87227 z"
         transform="translate(-265.41249,-194.18577)"
         fill="#ffffff"
         id="path16379" />
      <path
         d="m 622.32389,360.61042 a 4.78837,4.78837 0 0 0 -2.06268,-1.53281 l -0.8053,0.0283 a 85.05416,85.05416 0 0 0 24.32916,24.75754 q -10.7307,-11.62647 -21.46118,-23.25299 z"
         transform="translate(-265.41249,-194.18577)"
         fill="#ffffff"
         id="path16381" />
      <path
         d="M 754.25382,462.8406 722.166,291.031 a 12.72616,12.72616 0 0 0 -12.08553,-10.29808 q -0.38925,-0.009 -0.77844,0 l -21.85889,0.78412 -2.35253,0.0865 -10.90929,0.39208 -2.35253,0.0807 -7.01724,0.25371 -141.49775,5.07985 c -0.21331,0.0115 -0.43246,0.0115 -0.64577,0.006 l -31.70725,-0.66308 -11.73382,-0.24216 -0.37481,-0.006 -8.66055,-0.18451 -75.46547,-1.56838 -20.008,-0.42092 -9.86567,-0.20179 -2.364,-0.0519 -11.24949,-0.23067 -2.35826,-0.0519 -11.509,-0.23643 -2.35831,-0.0519 -12.64486,-0.26526 -1.9835,-0.0404 -11.27832,-0.23638 -1.78166,-0.0346 h -0.25945 a 12.69162,12.69162 0 0 0 -12.4661,10.59791 L 265.57919,471.8124 a 12.62409,12.62409 0 0 0 12.46034,14.65716 h 166.66058 a 11.54884,11.54884 0 0 1 6.81544,2.24874 l 3.15975,2.341 a 12.73914,12.73914 0 0 0 7.51309,2.47936 192.43946,192.43946 0 0 1 98.21814,0 12.54838,12.54838 0 0 0 8.93154,-3.70178 11.457,11.457 0 0 1 7.49578,-3.3385 l 165.66885,-8.72973 a 12.62479,12.62479 0 0 0 11.75112,-14.92815 z"
         transform="translate(-265.41249,-194.18577)"
         fill="#cccccc"
         id="path16383" />
      <path
         d="m 708.8533,436.04857 a 21.97626,21.97626 0 0 1 -22.75,21.16 c -9.62,-0.34 -21.1,-0.51 -33.56,-0.25 -40.69,0.87 -91.81,6.47 -122.56,26.61 a 21.96635,21.96635 0 0 1 -13.05,3.58 c -0.34,-0.02 -0.67,-0.04 -1.01,-0.07 a 21.928,21.928 0 0 1 -12.84,-5.69 c -16.94,-15.5 -55.79,-34.27 -144.72,-35.59 -0.37,0 -0.73,-0.02 -1.09,-0.04 a 21.96391,21.96391 0 0 1 -20.54,-23.32 l 8.74,-138.71 1.31,-20.79 2.3,-36.37 a 14.44272,14.44272 0 0 1 14.4,-13.53 h 0.09 l 52.98,0.31 q 33.48,1.515 55.46,8.53 a 95.87524,95.87524 0 0 1 14.56,5.86005 55.97512,55.97512 0 0 1 16.94,12.65 19.1189,19.1189 0 0 0 11.5,6.21 18.27586,18.27586 0 0 0 2.08,0.19 19.05655,19.05655 0 0 0 11.53,-3.3 c 34.61,-23.19 105.14,-24.95 144.09,-23.95 a 21.93093,21.93093 0 0 1 21.36005,20.31 l 1.57995,20.69 1.57,20.63 9.06,119.23 2.52,33.17 a 22.80586,22.80586 0 0 1 0.05,2.47995 z"
         fill="#f2f2f2"
         id="path16385"
         transform="translate(-265.41249,-194.18577)" />
      <path
         d="m 371.54377,261.84839 c 31.92709,-10.18628 67.54611,-7.4895 97.79251,6.86087 a 128.76776,128.76776 0 0 1 24.30152,14.96765 c 2.1275,1.66974 5.155,-1.317 3.00463,-3.00467 a 139.18738,139.18738 0 0 0 -97.705,-28.65176 133.69712,133.69712 0 0 0 -28.52335,5.73047 c -2.59534,0.828 -1.48608,4.932 1.12961,4.09744 z"
         transform="translate(-265.41249,-194.18577)"
         fill="#3f3d56"
         id="path16387" />
      <path
         d="m 547.22764,285.32529 c 29.68384,-15.60223 65.22949,-19.00455 97.50385,-10.14807 a 128.52077,128.52077 0 0 1 26.512,10.5412 c 2.4118,1.28692 4.56079,-2.37985 2.14465,-3.66907 -30.75982,-16.41327 -67.684,-20.19162 -101.27417,-11.04221 a 133.6584,133.6584 0 0 0 -27.031,10.649 c -2.42149,1.27286 -0.27623,4.94161 2.14467,3.66915 z"
         transform="translate(-265.41249,-194.18577)"
         fill="#3f3d56"
         id="path16389" />
      <path
         d="m 547.22764,313.65351 c 32.21819,-10.78734 66.47706,-18.58488 97.50385,-10.14807 9.20117,2.51889 18.09328,6.05441 26.512,10.54123 2.4118,1.28692 4.56079,-2.37986 2.14465,-3.6691 -30.75982,-16.41327 -67.684,-20.19162 -101.27417,-11.04221 -9.3705,2.55693 -18.43437,6.12769 -27.031,10.649 -2.42151,1.27276 -0.27625,4.94156 2.14465,3.6691 z"
         transform="translate(-265.41249,-194.18577)"
         fill="#3f3d56"
         id="path16391"
         sodipodi:nodetypes="cccscccc" />
      <path
         d="m 565.92985,340.69028 -0.57312,0.41464 c 0.19385,-0.14514 0.39538,-0.28119 0.60242,-0.41 z"
         transform="translate(-265.41249,-194.18577)"
         fill="#ffffff"
         id="path16411" />
      <path
         d="m 371.54377,290.17664 c 31.92709,-10.18628 67.54611,-7.4895 97.79251,6.86084 a 128.76673,128.76673 0 0 1 24.30152,14.96765 c 2.1275,1.66974 5.155,-1.317 3.00463,-3.00467 a 139.18733,139.18733 0 0 0 -97.705,-28.65176 133.69712,133.69712 0 0 0 -28.52335,5.73047 c -2.59534,0.828 -1.48608,4.932 1.12961,4.09744 z"
         transform="translate(-265.41249,-194.18577)"
         fill="#3f3d56"
         id="path16415" />
      <path
         d="m 371.54377,318.50486 c 31.92709,-10.18628 67.54611,-7.48951 97.79251,6.86084 a 128.76673,128.76673 0 0 1 24.30152,14.96765 c 2.1275,1.66974 5.155,-1.317 3.00463,-3.00467 a 139.18738,139.18738 0 0 0 -97.705,-28.65177 133.69835,133.69835 0 0 0 -28.52335,5.73047 c -2.59534,0.828 -1.48608,4.932 1.12961,4.09745 z"
         transform="translate(-265.41249,-194.18577)"
         fill="#3f3d56"
         id="path16417" />
      <path
         d="m 371.54377,346.83307 c 31.92709,-10.18628 67.54611,-7.4895 97.79251,6.86084 a 128.76776,128.76776 0 0 1 24.30152,14.96765 c 2.1275,1.66974 5.155,-1.317 3.00463,-3.00467 a 139.18738,139.18738 0 0 0 -97.705,-28.65176 133.69712,133.69712 0 0 0 -28.52335,5.73047 c -2.59534,0.828 -1.48608,4.932 1.12961,4.09744 z"
         transform="translate(-265.41249,-194.18577)"
         fill="#3f3d56"
         id="path16419" />
      <path
         d="m 371.54377,375.16132 c 31.92709,-10.18628 67.54611,-7.4895 97.79251,6.86084 a 128.76673,128.76673 0 0 1 24.30152,14.96765 c 2.1275,1.66974 5.155,-1.317 3.00463,-3.00467 a 139.18733,139.18733 0 0 0 -97.705,-28.65176 133.69712,133.69712 0 0 0 -28.52335,5.73047 c -2.59534,0.828 -1.48608,4.932 1.12961,4.09744 z"
         transform="translate(-265.41249,-194.18577)"
         fill="#3f3d56"
         id="path16421" />
      <path
         d="m 371.54377,403.48954 c 31.92709,-10.18628 67.54611,-7.48951 97.79251,6.86084 a 128.76532,128.76532 0 0 1 24.30152,14.96768 c 2.1275,1.66974 5.155,-1.317 3.00463,-3.00467 a 139.18738,139.18738 0 0 0 -97.705,-28.65177 133.69835,133.69835 0 0 0 -28.52335,5.73047 c -2.59534,0.828 -1.48608,4.932 1.12961,4.09745 z"
         transform="translate(-265.41249,-194.18577)"
         fill="#3f3d56"
         id="path16423" />
      <path
         d="m 486.57334,227.73857 v 67.93 c 0,1.35 -2.36005,2.48 -5.54,2.79 a 0.21977,0.21977 0 0 0 -0.08,0.01 c -0.53,0.04 -1.09,0.07 -1.66,0.07 a 14.57029,14.57029 0 0 1 -5.15,-0.84 c -0.15,-0.06 -0.3,-0.13 -0.45,-0.19 -0.14,-0.08 -0.29,-0.15 -0.43,-0.23 -0.79,-0.47 -1.25,-1.02 -1.25,-1.61 v -73.79 a 95.87524,95.87524 0 0 1 14.56,5.86 z"
         transform="translate(-265.41249,-194.18577)"
         fill="#750962"
         id="path16425" />
      <rect
         x="249.59866"
         y="49.308151"
         width="2.08026"
         height="242.23463"
         fill="#e6e6e6"
         id="rect16427" />
      <path
         d="m 743.31311,409.32034 a 10.13242,10.13242 0 0 0 8.84853,-12.77092 l 43.17781,-20.15542 25.99443,-42.0491 -20.43246,-8.24933 -17.5361,33.88436 -44.38471,29.57707 a 10.18731,10.18731 0 0 0 4.3325,19.76331 z"
         transform="translate(-265.41249,-194.18577)"
         fill="#ffb6b6"
         id="path16429" />
      <path
         d="m 837.3686,294.06308 c 0,0 5.08849,1.661 -0.49651,11.53124 -4.47122,7.90188 -26.25242,53.4177 -35.14229,62.35456 a 7.95988,7.95988 0 0 1 -0.99241,9.708 L 780.21462,361.371 c -0.39215,-5.92309 3.52758,-6.51081 5.8505,-6.31094 l 4.72136,-16.73345 16.46752,-41.27886 26.45777,-4.25063 z"
         transform="translate(-265.41249,-194.18577)"
         fill="#750962"
         id="path16431"
         style="fill:#f0a819;fill-opacity:1" />
      <path
         d="m 837.81192,216.694 c 0.97028,-3.92322 8.00959,-6.82 -4.0487,-12.2973 -2.92646,-1.32929 -2.80518,-5.90708 -5.28064,-7.95718 -2.47546,-2.0501 -6.10071,-3.00056 -8.97772,-1.56762 -2.56928,1.27961 -4.01707,4.17541 -4.32579,7.02911 a 25.89228,25.89228 0 0 0 0.98129,8.51209 l -0.2338,0.34154 q 7.16485,5.48264 14.32982,10.96512 c 1.75519,1.34314 4.0498,2.74952 6.01679,1.74173 2.22689,-1.14089 0.93804,-4.33855 1.53875,-6.76749 z"
         transform="translate(-265.41249,-194.18577)"
         fill="#2f2e41"
         id="path16433" />
      <g
         id="g19983"
         transform="translate(-49.475393,-645.28744)">
        <ellipse
           cx="328.74442"
           cy="836.64716"
           fill="#e5e5e5"
           id="circle19862"
           style="stroke-width:0.521363"
           rx="3.1844115"
           ry="3.0729375" />
        <path
           d="m 404.9016,860.601 a 223.91696,216.0785 0 0 1 -35.56094,-18.003 c -27.06555,-16.80037 -45.51987,-36.23205 -45.9213,-48.35375 -0.11735,-3.54284 1.24636,-6.35244 4.05346,-8.3503 4.54081,-3.23221 12.63619,-4.00772 23.41157,-2.24444 l -0.26615,1.51497 c -10.33908,-1.69252 -18.01585,-1.01258 -22.2003,1.96584 -2.36046,1.68026 -3.50681,4.05699 -3.40728,7.0649 0.38547,11.63907 18.54657,30.57133 45.19141,47.11037 a 222.26311,214.48255 0 0 0 35.30308,17.87346 z"
           fill="#3f3d56"
           id="path19864"
           style="stroke-width:0.521363" />
        <path
           d="m 443.22196,869.7038 c -4.72207,0 -10.31397,-0.73348 -16.67243,-2.20443 l 0.3711,-1.49396 c 13.35105,3.08794 23.4542,2.83112 28.44862,-0.72398 2.36046,-1.68025 3.50681,-4.05721 3.40728,-7.0649 -0.38561,-11.6393 -18.54658,-30.57132 -45.1914,-47.11011 -13.50432,-8.38256 -27.84727,-15.36367 -41.4782,-20.1884 l 0.54836,-1.44245 c 13.73899,4.86298 28.19012,11.89585 41.79126,20.33845 27.06541,16.80013 45.51987,36.23181 45.92129,48.3535 0.11735,3.54284 -1.24637,6.35244 -4.05347,8.3503 -2.98124,2.12188 -7.40593,3.18598 -13.09241,3.18598 z"
           fill="#3f3d56"
           id="path19866"
           style="stroke-width:0.521363" />
        <path
           d="m 340.61137,869.68752 c -5.70217,2.5e-4 -10.16794,-1.05533 -13.13855,-3.16975 -2.8071,-1.99785 -4.17086,-4.80745 -4.05346,-8.3503 0.40143,-12.12169 18.85588,-31.55337 45.9213,-48.35349 30.24931,-18.77622 64.20288,-29.90387 80.73459,-26.45732 l -0.33612,1.50195 c -16.15826,-3.37027 -49.60857,7.67035 -79.53706,26.24777 -26.64484,16.53879 -44.80581,35.47081 -45.19141,47.11013 -0.0996,3.00766 1.04682,5.38463 3.40728,7.06489 11.95501,8.50809 50.16068,-2.24669 85.16719,-23.97581 24.04726,-14.92628 41.13432,-31.6269 44.59291,-43.58431 l 1.53364,0.41314 c -3.55911,12.3045 -20.90366,29.34194 -45.26513,44.46357 -17.14446,10.64174 -35.57895,19.00454 -51.90775,23.54768 -8.48153,2.35998 -15.89601,3.5416 -21.92743,3.54185 z"
           fill="#3f3d56"
           id="path19868"
           style="stroke-width:0.521363" />
        <ellipse
           cx="361.76266"
           cy="786.71198"
           fill="#6c63ff"
           id="circle19870"
           style="stroke-width:0.521363"
           rx="4.7766171"
           ry="4.6094065" />
        <ellipse
           cx="415.10153"
           cy="863.79144"
           fill="#6c63ff"
           id="circle19872"
           style="stroke-width:0.521363"
           rx="4.7766171"
           ry="4.6094065" />
        <ellipse
           cx="429.9621"
           cy="905.78833"
           fill="#e5e5e5"
           id="circle19874"
           style="stroke-width:0.521363"
           rx="3.1844115"
           ry="3.0729375" />
        <ellipse
           cx="351.41333"
           cy="757.77515"
           fill="#e5e5e5"
           id="circle19876"
           style="stroke-width:0.521363"
           rx="3.1844115"
           ry="3.0729375" />
        <ellipse
           cx="457.0296"
           cy="789.0166"
           fill="#6c63ff"
           id="circle19878"
           style="stroke-width:0.521363"
           rx="4.7766171"
           ry="4.6094065" />
      </g>
    </g>
  </g>
</svg>
