<?xml version="1.0" encoding="UTF-8" standalone="no"?>
<!-- Created with Inkscape (http://www.inkscape.org/) -->

<svg
   width="226.68074mm"
   height="182.70874mm"
   viewBox="0 0 226.68074 182.70874"
   version="1.1"
   id="svg1833"
   inkscape:version="1.1.2 (0a00cf5339, 2022-02-04)"
   sodipodi:docname="undraw_gift_box_re_vau4.svg"
   xmlns:inkscape="http://www.inkscape.org/namespaces/inkscape"
   xmlns:sodipodi="http://sodipodi.sourceforge.net/DTD/sodipodi-0.dtd"
   xmlns="http://www.w3.org/2000/svg"
   xmlns:svg="http://www.w3.org/2000/svg">
  <sodipodi:namedview
     id="namedview1835"
     pagecolor="#ffffff"
     bordercolor="#666666"
     borderopacity="1.0"
     inkscape:pageshadow="2"
     inkscape:pageopacity="0.0"
     inkscape:pagecheckerboard="0"
     inkscape:document-units="mm"
     showgrid="false"
     inkscape:zoom="0.77771465"
     inkscape:cx="525.89983"
     inkscape:cy="338.17031"
     inkscape:window-width="1718"
     inkscape:window-height="1035"
     inkscape:window-x="1393"
     inkscape:window-y="110"
     inkscape:window-maximized="0"
     inkscape:current-layer="g1936" />
  <defs
     id="defs1830" />
  <g
     inkscape:label="Layer 1"
     inkscape:groupmode="layer"
     id="layer1"
     transform="translate(23.525937,-67.521917)">
    <g
       id="g1936"
       transform="matrix(0.26458333,0,0,0.26458333,-23.525937,67.521917)">
      <circle
         cx="241.16711"
         cy="361.99457"
         r="97.200432"
         fill="#e6e6e6"
         id="circle1837" />
      <path
         d="m 386.53249,608.65667 23.90995,14.81627 V 523.32127 L 383.64223,506.714 a 10.396,10.396 0 0 1 -4.53632,-6.03867 v 0 a 10.39619,10.39619 0 0 1 7.42666,1.37447 l 23.90995,14.81627 v -38.8359 a 91.88994,91.88994 0 0 1 2.74357,-22.28622 91.887,91.887 0 0 1 2.74356,22.28622 v 63.38739 l 35.27393,-21.85809 a 17.28621,17.28621 0 0 1 9.38854,-2.59016 17.287,17.287 0 0 1 -6.49828,7.25439 l -38.16433,23.64908 v 236.85085 h -5.4871 V 629.92821 L 383.6422,613.321 a 10.396,10.396 0 0 1 -4.53631,-6.03865 v 0 a 10.39632,10.39632 0 0 1 7.4266,1.37432 z"
         transform="translate(-171.62694,-104.72363)"
         fill="#cccccc"
         id="path1839" />
      <circle
         cx="97.200432"
         cy="370.24744"
         r="97.200432"
         fill="#e6e6e6"
         id="circle1841" />
      <path
         d="m 295.089,616.90953 -23.91,14.81627 V 531.57413 l 26.8002,-16.60725 a 10.396,10.396 0 0 0 4.53633,-6.03868 v 0 a 10.3963,10.3963 0 0 0 -7.42666,1.37447 l -23.91,14.81625 V 486.283 a 91.889,91.889 0 0 0 -2.74357,-22.28622 91.88751,91.88751 0 0 0 -2.74355,22.28622 v 63.3874 L 230.418,527.81233 a 17.28624,17.28624 0 0 0 -9.38856,-2.59015 17.287,17.287 0 0 0 6.4983,7.25439 l 38.16417,23.64913 V 785.24651 H 271.179 V 638.18108 l 26.80019,-16.60726 a 10.39591,10.39591 0 0 0 4.53633,-6.03864 v 0 a 10.39645,10.39645 0 0 0 -7.42652,1.37435 z"
         transform="translate(-171.62694,-104.72363)"
         fill="#cccccc"
         id="path1843" />
      <circle
         cx="167.80827"
         cy="167.35454"
         r="167.35454"
         fill="#e6e6e6"
         id="circle1845" />
      <path
         d="m 384.651,516.46034 -41.16685,25.50985 V 369.53432 l 46.14314,-28.59343 a 17.89922,17.89922 0 0 0 7.81049,-10.39707 l 8e-5,-8e-5 h -8e-5 a 17.89974,17.89974 0 0 0 -12.78675,2.36648 l -41.16685,25.50983 v -66.86552 a 158.21125,158.21125 0 0 0 -4.72373,-38.37124 158.20777,158.20777 0 0 0 -4.7237,38.37124 v 109.137 L 273.304,363.05739 a 29.76333,29.76333 0 0 0 -16.16471,-4.45962 29.76342,29.76342 0 0 0 11.18843,12.4902 l 65.709,40.71779 v 373.80807 h 9.44743 V 553.08444 L 389.62731,524.491 a 17.89918,17.89918 0 0 0 7.8105,-10.39707 l 8e-5,-6e-5 h -8e-5 a 17.89976,17.89976 0 0 0 -12.78681,2.36647 z"
         transform="translate(-171.62694,-104.72363)"
         fill="#cccccc"
         id="path1847" />
      <rect
         x="66.746117"
         y="680"
         width="790"
         height="2"
         fill="#3f3d56"
         id="rect1849" />
      <path
         d="m 825.415,476.67554 -23.6377,-40.94141 40.94141,-23.63721 23.6377,40.9419 z m -20.90527,-40.209 21.63769,37.47656 37.47658,-21.63671 -21.63769,-37.47705 z"
         transform="translate(-171.62694,-104.72363)"
         fill="#2f2e41"
         id="path1853" />
      <rect
         x="793.9942"
         y="414.94336"
         width="45.27441"
         height="45.274441"
         transform="rotate(-30,535.40103,705.47899)"
         fill="#ff6584"
         id="rect1851" />
      <path
         d="m 603.14205,474.00596 a 20,20 0 1 1 20,-20 20,20 0 0 1 -20,20 z m 0,-38 a 18,18 0 1 0 18,18 18,18 0 0 0 -18,-18 z"
         fill="#2f2e41"
         id="path1857" />
      <circle
         cx="617.1084"
         cy="462.96851"
         r="19"
         fill="#d0cde1"
         id="circle1855" />
      <g
         id="g3067"
         transform="matrix(0.20869459,0,0,0.20869459,594.51947,565.53777)"
         style="fill:#000000;fill-opacity:1">
        <path
           d="m 169.94337,-472.19228 q -0.58078,17.95539 -8.74513,28.78352 -8.16571,10.82931 -19.40145,10.83029 -9.15176,0 -16.04242,-10.5986 -6.89283,-10.59841 -6.892,-32.60593 0,-4.8648 0.23169,-9.26642 0.23089,-4.40064 0.57921,-8.33967 l 4.05409,-38.10806 H 96.970458 q -6.94938,72.27776 -11.40911,86.00361 -4.46013,13.72557 -15.11568,13.726 a 12.78019,12.78019 0 0 1 -8.57155,-3.59073 12.06432,12.06432 0 0 1 -4.0541,-9.49829 q 0,-5.326 8.3976,-14.884 8.39721,-9.55612 9.32434,-17.43233 l 6.94976,-54.32424 h -11.23515 a 19.9108,19.9108 0 0 0 -9.09265,2.25854 17.15586,17.15586 0 0 0 -6.54451,5.27024 l -4.98084,7.41314 h -4.05409 q 5.67412,-17.60522 13.95764,-26.46706 8.28,-8.86107 19.05393,-8.861 h 88.494232 v 20.38611 h -29.8842 q -1.39011,13.89963 -2.14289,27.79906 -0.75455,13.89962 -0.75278,27.91509 0,9.499 4.40162,15.40548 4.40064,5.90738 11.00386,5.90718 4.05312,0 8.51344,-3.30132 a 11.97,11.97 0 0 0 5.03856,-8.62908 q 0.34754,-2.54667 0.52109,-3.99617 0.17377,-1.447 0.174,-1.79537 z"
           fill="#750a62"
           id="path3031"
           style="fill:#000000;fill-opacity:1" />
      </g>
      <path
         d="m 908.59718,789.27246 h -184 a 8.50982,8.50982 0 0 1 -8.5,-8.5 v -171 a 8.50982,8.50982 0 0 1 8.5,-8.5 h 184 a 8.50982,8.50982 0 0 1 8.5,8.5 v 171 a 8.50982,8.50982 0 0 1 -8.5,8.5 z"
         transform="translate(-171.62694,-104.72363)"
         fill="#750962"
         id="path1859" />
      <path
         d="m 829.59572,795.27637 h -26 a 8.50981,8.50981 0 0 1 -8.5,-8.5 v -182.084 a 8.50981,8.50981 0 0 1 8.5,-8.5 h 26 a 8.50982,8.50982 0 0 1 8.5,8.5 v 182.084 a 8.50982,8.50982 0 0 1 -8.5,8.5 z"
         transform="translate(-171.62694,-104.72363)"
         fill="#3f3d56"
         id="path1861" />
      <path
         d="m 957.48374,584.34521 c -1.075,17.64038 -24.9038,30.54175 -24.9038,30.54175 0,0 -22.086,-15.69934 -21.011,-33.33972 1.075,-17.64038 24.90381,-30.54175 24.90381,-30.54175 0,0 22.08595,15.69934 21.01099,33.33972 z"
         transform="translate(-171.62694,-104.72363)"
         fill="#3f3d56"
         id="path1863" />
      <path
         d="m 958.563,639.38428 c -17.64368,-1.0199 -30.61939,-24.80835 -30.61939,-24.80835 0,0 15.63037,-22.13489 33.274,-21.115 17.64363,1.01989 30.61939,24.80836 30.61939,24.80836 0,0 -15.63035,22.13488 -33.274,21.11499 z"
         transform="translate(-171.62694,-104.72363)"
         fill="#3f3d56"
         id="path1865" />
      <polygon
         points="744.97,517.469 744.97,582.749 680.04,497.049 729.5,497.049 "
         opacity="0.1"
         style="isolation:isolate"
         id="polygon1867" />
      <path
         d="m 971.71925,733.9375 a 8.489,8.489 0 0 1 -6.78467,-3.36328 L 829.66017,552.0332 a 8.5,8.5 0 0 1 1.6416,-11.9082 l 19.92676,-15.09766 a 8.49846,8.49846 0 0 1 11.90771,1.64258 L 998.41066,705.21 a 8.5,8.5 0 0 1 -1.6416,11.9082 l -19.92676,15.09762 a 8.45354,8.45354 0 0 1 -5.12305,1.72168 z"
         transform="translate(-171.62694,-104.72363)"
         fill="#750962"
         id="path1869" />
      <rect
         x="891.91931"
         y="603.82471"
         width="43"
         height="43"
         transform="rotate(-37.15004,671.79111,828.32067)"
         fill="#3f3d56"
         id="rect1871" />
      <path
         d="m 588.1533,404.10454 -45.66309,-12.23535 12.23535,-45.66406 45.66309,12.23535 z m -43.21387,-13.64941 41.7998,11.2002 11.2002,-41.80079 -41.79981,-11.20019 z"
         fill="#2f2e41"
         id="path1875" />
      <rect
         x="734.6333"
         y="469.68472"
         width="45.274441"
         height="45.27441"
         transform="rotate(-75,603.2178,551.79439)"
         fill="#d0cde1"
         id="rect1873"
         style="fill:#f0b135;fill-opacity:1" />
      <g
         style="fill:currentColor"
         id="g3081"
         transform="matrix(2.5587274,0.85774918,-0.79828616,2.7493227,573.80248,357.42788)">
        <path
           d="m 8.217,11.068 c 1.216,0 1.948,-0.869 1.948,-2.31 V 8.056 c 0,-1.44 -0.727,-2.305 -1.929,-2.305 -0.742,0 -1.328,0.347 -1.499,0.889 H 6.674 V 3.983 H 5.384 V 11 h 1.27 v -0.791 h 0.064 c 0.21,0.532 0.776,0.86 1.499,0.86 z m -0.43,-1.025 c -0.66,0 -1.113,-0.518 -1.113,-1.28 V 8.12 c 0,-0.825 0.42,-1.343 1.098,-1.343 0.684,0 1.075,0.518 1.075,1.416 v 0.45 c 0,0.888 -0.386,1.401 -1.06,1.401 z m -5.583,1.035 c 0.767,0 1.201,-0.356 1.406,-0.737 H 3.669 V 11 H 4.885 V 7.519 C 4.885,6.205 3.938,5.736 2.775,5.736 1.355,5.736 0.75,6.42 0.69,7.27 H 1.906 C 1.97,6.947 2.219,6.718 2.746,6.718 3.273,6.718 3.61,6.967 3.61,7.489 V 7.953 H 2.346 C 1.145,7.953 0.5,8.568 0.5,9.496 c 0,0.977 0.693,1.582 1.704,1.582 z m 0.42,-0.947 c -0.44,0 -0.845,-0.235 -0.845,-0.718 0,-0.395 0.269,-0.684 0.84,-0.684 H 3.61 v 0.538 c 0,0.503 -0.444,0.864 -0.986,0.864 z m 8.897,0.567 c -0.577,-0.4 -0.9,-1.088 -0.9,-1.983 v -0.65 c 0,-1.42 0.894,-2.338 2.305,-2.338 1.352,0 2.119,0.82 2.139,1.806 H 13.878 C 13.838,7.182 13.595,6.757 12.96,6.757 c -0.674,0 -1.045,0.517 -1.045,1.328 V 8.71 c 0,0.468 0.121,0.834 0.343,1.067 l -0.737,0.92 z"
           id="path3069" />
        <path
           d="m 14.469,9.414 a 0.75,0.75 0 0 1 0.117,1.055 l -4,5 A 0.75,0.75 0 0 1 9.47,15.53 l -2.5,-2.5 a 0.75,0.75 0 1 1 1.06,-1.06 l 1.908,1.907 3.476,-4.346 a 0.75,0.75 0 0 1 1.055,-0.117 z"
           id="path3071" />
      </g>
      <path
         d="m 562.376,632.723 a 11.38228,11.38228 0 0 0 -1.1652,-17.41438 L 542.847,467.27838 519.12064,474.333 544.73541,618.39163 A 11.44393,11.44393 0 0 0 562.376,632.723 Z"
         transform="translate(-171.62694,-104.72363)"
         fill="#ffb8b8"
         id="path1877" />
      <polygon
         points="412.742,669.489 426.619,669.489 433.224,615.964 412.742,615.964 "
         fill="#ffb8b8"
         id="polygon1879" />
      <path
         d="m 581.39569,770.24806 h 43.61336 v 16.85062 h -28.30424 a 15.30912,15.30912 0 0 1 -15.30912,-15.30912 v -1.54149 z"
         transform="rotate(180,517.3889,726.31155)"
         fill="#2f2e41"
         id="path1881" />
      <polygon
         points="316.779,647.875 329.786,652.713 354.636,604.848 335.44,597.707 "
         fill="#ffb8b8"
         id="polygon1883" />
      <path
         d="m 482.69612,754.91941 h 43.61336 V 771.77 h -28.30424 a 15.30912,15.30912 0 0 1 -15.30912,-15.30912 v -1.54149 z"
         transform="rotate(-159.59643,409.26625,726.42595)"
         fill="#2f2e41"
         id="path1885" />
      <circle
         cx="387.84811"
         cy="297.88794"
         r="26.2388"
         fill="#ffb8b8"
         id="circle1887" />
      <path
         d="m 518.43419,469.95338 c -0.82162,-24.16818 24.579,-40.93443 45.95011,-29.61853 2.72287,1.44175 30.8376,25.32762 31.89714,40.1611 1.05954,14.83348 3.1786,39.20276 3.1786,39.20276 l 29.66696,221.44263 -63.572,-3.1786 7.67745,-64.59821 -41.32183,65.69111 -50.05882,-15.92638 61.453,-176.9422 c 0,0 -23.62548,-39.60773 -24.87061,-76.23368 z"
         transform="translate(-171.62694,-104.72363)"
         fill="#2f2e41"
         id="path1889" />
      <path
         d="m 518.93464,478.36717 4.0822,53.06862 a 2.20607,2.20607 0 0 0 2.19957,2.03686 h 17.96169 a 2.20606,2.20606 0 0 0 2.03729,-3.05232 L 523.1715,477.35172 a 2.20606,2.20606 0 0 0 -4.23686,1.01545 z"
         transform="translate(-171.62694,-104.72363)"
         fill="#2f2e41"
         id="path1891" />
      <path
         d="m 611.17541,623.52774 a 11.38225,11.38225 0 0 0 -3.1952,-17.15835 l -35.56155,-144.8639 -22.73772,9.78285 42.29787,140.071 a 11.44393,11.44393 0 0 0 19.1966,12.16835 z"
         transform="translate(-171.62694,-104.72363)"
         fill="#ffb8b8"
         id="path1893" />
      <path
         d="m 552.84054,448.70992 c 0,0 -7.41674,14.83348 0,41.32183 7.41674,26.48835 12.71446,48.73857 12.71446,48.73857 0,0 16.95254,-10.59534 24.36928,-7.41674 7.41674,3.1786 -11.73228,-70.61089 -11.73228,-70.61089 0,0 -11.57752,-24.74717 -25.35146,-12.03277 z"
         transform="translate(-171.62694,-104.72363)"
         fill="#2f2e41"
         id="path1895" />
      <path
         d="m 565.63205,406.70588 c 0.35442,-5.44444 7.22306,-5.631 12.67879,-5.68255 5.45573,-0.0515 11.97836,0.14321 15.0654,-4.35543 2.0401,-2.973 1.65041,-7.10032 -0.035,-10.28779 -1.68541,-3.18747 -4.45773,-5.639 -7.18509,-7.99742 -7.04139,-6.08883 -14.29842,-12.12936 -22.7522,-16.02662 -8.45378,-3.89726 -18.36045,-5.472 -27.12787,-2.3435 -10.77008,3.84308 -25.32927,23.62588 -26.5865,34.99176 -1.25723,11.36588 3.28506,22.95252 10.94189,31.44586 7.65683,8.49334 25.18188,5.0665 36.21069,8.088 -6.7049,-9.48964 -2.2854,-26.73257 8.45573,-31.164 z"
         transform="translate(-171.62694,-104.72363)"
         fill="#2f2e41"
         id="path1897" />
      <g
         style="fill:currentColor"
         id="g3252"
         transform="matrix(1.94597,-1.1154983,1.1154983,1.94597,621.73254,328.21699)">
        <path
           d="M 8.5,2.687 C 9.154,1.998 10.282,1.801 11.612,1.935 12.846,2.059 14.115,2.458 15,2.828 v 9.923 C 14.082,12.401 12.893,12.059 11.713,11.941 10.619,11.83 9.435,11.902 8.5,12.433 Z M 8,1.783 C 7.015,0.936 5.587,0.81 4.287,0.94 2.773,1.093 1.245,1.612 0.293,2.045 A 0.5,0.5 0 0 0 0,2.5 v 11 a 0.5,0.5 0 0 0 0.707,0.455 c 0.882,-0.4 2.303,-0.881 3.68,-1.02 1.409,-0.142 2.59,0.087 3.223,0.877 a 0.5,0.5 0 0 0 0.78,0 c 0.633,-0.79 1.814,-1.019 3.222,-0.877 1.378,0.139 2.8,0.62 3.681,1.02 A 0.5,0.5 0 0 0 16,13.5 V 2.5 A 0.5,0.5 0 0 0 15.707,2.045 C 14.755,1.612 13.227,1.093 11.713,0.94 10.413,0.809 8.985,0.936 8,1.783 Z"
           id="path3243" />
      </g>
    </g>
  </g>
</svg>
